<mxfile host="app.diagrams.net" agent="Mozilla/5.0 (Windows NT 10.0; Win64; x64) AppleWebKit/537.36 (KHTML, like Gecko) Chrome/133.0.0.0 Safari/537.36" version="26.0.14">
  <diagram name="Pagina-1" id="cQy2ocB_fxUoCQ2ERHXt">
    <mxGraphModel grid="0" page="0" gridSize="10" guides="1" tooltips="1" connect="1" arrows="1" fold="1" pageScale="1" pageWidth="827" pageHeight="1169" math="0" shadow="0">
      <root>
        <mxCell id="0" />
        <mxCell id="1" parent="0" />
        <mxCell id="B-oGz2C5baCeHcSGAwt5-24" style="edgeStyle=orthogonalEdgeStyle;rounded=0;orthogonalLoop=1;jettySize=auto;html=1;curved=0;" edge="1" parent="1" target="B-oGz2C5baCeHcSGAwt5-21">
          <mxGeometry relative="1" as="geometry">
            <mxPoint x="-98.33333333333348" y="632" as="sourcePoint" />
            <mxPoint x="201.5" y="632" as="targetPoint" />
            <Array as="points">
              <mxPoint x="-98" y="672" />
            </Array>
          </mxGeometry>
        </mxCell>
        <mxCell id="B-oGz2C5baCeHcSGAwt5-15" value=":LoginView" style="shape=umlLifeline;perimeter=lifelinePerimeter;whiteSpace=wrap;html=1;container=1;dropTarget=0;collapsible=0;recursiveResize=0;outlineConnect=0;portConstraint=eastwest;newEdgeStyle={&quot;curved&quot;:0,&quot;rounded&quot;:0};" vertex="1" parent="1">
          <mxGeometry x="-148" y="512" width="100" height="3387" as="geometry" />
        </mxCell>
        <mxCell id="B-oGz2C5baCeHcSGAwt5-22" style="edgeStyle=orthogonalEdgeStyle;rounded=0;orthogonalLoop=1;jettySize=auto;html=1;curved=0;" edge="1" parent="1">
          <mxGeometry relative="1" as="geometry">
            <mxPoint x="-328.3333333333335" y="609.0000000000002" as="sourcePoint" />
            <mxPoint x="-98.5" y="609.0000000000002" as="targetPoint" />
            <Array as="points">
              <mxPoint x="-228" y="609" />
              <mxPoint x="-228" y="609" />
            </Array>
          </mxGeometry>
        </mxCell>
        <mxCell id="B-oGz2C5baCeHcSGAwt5-17" value="" style="shape=umlLifeline;perimeter=lifelinePerimeter;whiteSpace=wrap;html=1;container=1;dropTarget=0;collapsible=0;recursiveResize=0;outlineConnect=0;portConstraint=eastwest;newEdgeStyle={&quot;curved&quot;:0,&quot;rounded&quot;:0};participant=umlActor;size=40;strokeWidth=2;rounded=0;" vertex="1" parent="1">
          <mxGeometry x="-338" y="482" width="20" height="3417" as="geometry" />
        </mxCell>
        <mxCell id="B-oGz2C5baCeHcSGAwt5-18" value="Utente" style="text;html=1;align=center;verticalAlign=middle;resizable=0;points=[];autosize=1;strokeColor=none;fillColor=none;" vertex="1" parent="1">
          <mxGeometry x="-358" y="452" width="60" height="30" as="geometry" />
        </mxCell>
        <mxCell id="B-oGz2C5baCeHcSGAwt5-19" value="login" style="shape=umlFrame;whiteSpace=wrap;html=1;pointerEvents=0;fillColor=#0050ef;fontColor=#ffffff;strokeColor=#001DBC;strokeWidth=2;" vertex="1" parent="1">
          <mxGeometry x="-440" y="572" width="3142" height="635" as="geometry" />
        </mxCell>
        <mxCell id="B-oGz2C5baCeHcSGAwt5-34" style="edgeStyle=orthogonalEdgeStyle;rounded=0;orthogonalLoop=1;jettySize=auto;html=1;curved=0;" edge="1" parent="1" source="B-oGz2C5baCeHcSGAwt5-21" target="B-oGz2C5baCeHcSGAwt5-28">
          <mxGeometry relative="1" as="geometry">
            <Array as="points">
              <mxPoint x="1112" y="702" />
              <mxPoint x="1112" y="702" />
            </Array>
          </mxGeometry>
        </mxCell>
        <mxCell id="B-oGz2C5baCeHcSGAwt5-21" value=":AppController" style="shape=umlLifeline;perimeter=lifelinePerimeter;whiteSpace=wrap;html=1;container=1;dropTarget=0;collapsible=0;recursiveResize=0;outlineConnect=0;portConstraint=eastwest;newEdgeStyle={&quot;curved&quot;:0,&quot;rounded&quot;:0};" vertex="1" parent="1">
          <mxGeometry x="682" y="517" width="100" height="3381" as="geometry" />
        </mxCell>
        <mxCell id="B-oGz2C5baCeHcSGAwt5-71" value="" style="html=1;points=[[0,0,0,0,5],[0,1,0,0,-5],[1,0,0,0,5],[1,1,0,0,-5]];perimeter=orthogonalPerimeter;outlineConnect=0;targetShapes=umlLifeline;portConstraint=eastwest;newEdgeStyle={&quot;curved&quot;:0,&quot;rounded&quot;:0};" vertex="1" parent="B-oGz2C5baCeHcSGAwt5-21">
          <mxGeometry x="45" y="138" width="10" height="536" as="geometry" />
        </mxCell>
        <mxCell id="B-oGz2C5baCeHcSGAwt5-179" value="" style="html=1;points=[[0,0,0,0,5],[0,1,0,0,-5],[1,0,0,0,5],[1,1,0,0,-5]];perimeter=orthogonalPerimeter;outlineConnect=0;targetShapes=umlLifeline;portConstraint=eastwest;newEdgeStyle={&quot;curved&quot;:0,&quot;rounded&quot;:0};" vertex="1" parent="B-oGz2C5baCeHcSGAwt5-21">
          <mxGeometry x="45" y="786" width="10" height="665" as="geometry" />
        </mxCell>
        <mxCell id="H4YtO1ylQRDqALDeDLQf-90" value="" style="html=1;points=[[0,0,0,0,5],[0,1,0,0,-5],[1,0,0,0,5],[1,1,0,0,-5]];perimeter=orthogonalPerimeter;outlineConnect=0;targetShapes=umlLifeline;portConstraint=eastwest;newEdgeStyle={&quot;curved&quot;:0,&quot;rounded&quot;:0};" vertex="1" parent="B-oGz2C5baCeHcSGAwt5-21">
          <mxGeometry x="45" y="2893" width="10" height="32" as="geometry" />
        </mxCell>
        <mxCell id="H4YtO1ylQRDqALDeDLQf-107" value="" style="html=1;points=[[0,0,0,0,5],[0,1,0,0,-5],[1,0,0,0,5],[1,1,0,0,-5]];perimeter=orthogonalPerimeter;outlineConnect=0;targetShapes=umlLifeline;portConstraint=eastwest;newEdgeStyle={&quot;curved&quot;:0,&quot;rounded&quot;:0};" vertex="1" parent="B-oGz2C5baCeHcSGAwt5-21">
          <mxGeometry x="45" y="3316" width="10" height="26" as="geometry" />
        </mxCell>
        <mxCell id="B-oGz2C5baCeHcSGAwt5-23" value="&lt;div&gt;Clicca il bottone &quot;login&quot;&lt;/div&gt;" style="text;html=1;align=center;verticalAlign=middle;resizable=0;points=[];autosize=1;strokeColor=none;fillColor=none;" vertex="1" parent="1">
          <mxGeometry x="-327" y="583" width="140" height="26" as="geometry" />
        </mxCell>
        <mxCell id="B-oGz2C5baCeHcSGAwt5-25" value="Inserisce username/email e password&amp;nbsp;&lt;span style=&quot;background-color: transparent; color: light-dark(rgb(0, 0, 0), rgb(255, 255, 255));&quot;&gt;e invia le credenziali&lt;/span&gt;" style="text;html=1;align=center;verticalAlign=middle;resizable=0;points=[];autosize=1;strokeColor=none;fillColor=none;" vertex="1" parent="1">
          <mxGeometry x="-93" y="645" width="331" height="26" as="geometry" />
        </mxCell>
        <mxCell id="B-oGz2C5baCeHcSGAwt5-26" value=":RegisterView" style="shape=umlLifeline;perimeter=lifelinePerimeter;whiteSpace=wrap;html=1;container=1;dropTarget=0;collapsible=0;recursiveResize=0;outlineConnect=0;portConstraint=eastwest;newEdgeStyle={&quot;curved&quot;:0,&quot;rounded&quot;:0};" vertex="1" parent="1">
          <mxGeometry x="-8" y="512" width="100" height="3386" as="geometry" />
        </mxCell>
        <mxCell id="B-oGz2C5baCeHcSGAwt5-178" value="" style="html=1;points=[[0,0,0,0,5],[0,1,0,0,-5],[1,0,0,0,5],[1,1,0,0,-5]];perimeter=orthogonalPerimeter;outlineConnect=0;targetShapes=umlLifeline;portConstraint=eastwest;newEdgeStyle={&quot;curved&quot;:0,&quot;rounded&quot;:0};" vertex="1" parent="B-oGz2C5baCeHcSGAwt5-26">
          <mxGeometry x="45" y="732" width="10" height="734" as="geometry" />
        </mxCell>
        <mxCell id="B-oGz2C5baCeHcSGAwt5-101" style="edgeStyle=orthogonalEdgeStyle;rounded=0;orthogonalLoop=1;jettySize=auto;html=1;curved=0;" edge="1" parent="1">
          <mxGeometry relative="1" as="geometry">
            <mxPoint x="1492.3939393939395" y="731.39" as="sourcePoint" />
            <mxPoint x="1682" y="731.39" as="targetPoint" />
            <Array as="points">
              <mxPoint x="1544.5" y="731.39" />
              <mxPoint x="1544.5" y="731.39" />
            </Array>
          </mxGeometry>
        </mxCell>
        <mxCell id="B-oGz2C5baCeHcSGAwt5-28" value=":LaVaultFacade" style="shape=umlLifeline;perimeter=lifelinePerimeter;whiteSpace=wrap;html=1;container=1;dropTarget=0;collapsible=0;recursiveResize=0;outlineConnect=0;portConstraint=eastwest;newEdgeStyle={&quot;curved&quot;:0,&quot;rounded&quot;:0};" vertex="1" parent="1">
          <mxGeometry x="1442" y="517" width="100" height="3371" as="geometry" />
        </mxCell>
        <mxCell id="B-oGz2C5baCeHcSGAwt5-180" value="" style="html=1;points=[[0,0,0,0,5],[0,1,0,0,-5],[1,0,0,0,5],[1,1,0,0,-5]];perimeter=orthogonalPerimeter;outlineConnect=0;targetShapes=umlLifeline;portConstraint=eastwest;newEdgeStyle={&quot;curved&quot;:0,&quot;rounded&quot;:0};" vertex="1" parent="B-oGz2C5baCeHcSGAwt5-28">
          <mxGeometry x="45" y="889" width="10" height="382" as="geometry" />
        </mxCell>
        <mxCell id="H4YtO1ylQRDqALDeDLQf-4" value="" style="html=1;points=[[0,0,0,0,5],[0,1,0,0,-5],[1,0,0,0,5],[1,1,0,0,-5]];perimeter=orthogonalPerimeter;outlineConnect=0;targetShapes=umlLifeline;portConstraint=eastwest;newEdgeStyle={&quot;curved&quot;:0,&quot;rounded&quot;:0};" vertex="1" parent="B-oGz2C5baCeHcSGAwt5-28">
          <mxGeometry x="45" y="1715" width="10" height="496" as="geometry" />
        </mxCell>
        <mxCell id="H4YtO1ylQRDqALDeDLQf-97" value="" style="html=1;points=[[0,0,0,0,5],[0,1,0,0,-5],[1,0,0,0,5],[1,1,0,0,-5]];perimeter=orthogonalPerimeter;outlineConnect=0;targetShapes=umlLifeline;portConstraint=eastwest;newEdgeStyle={&quot;curved&quot;:0,&quot;rounded&quot;:0};" vertex="1" parent="B-oGz2C5baCeHcSGAwt5-28">
          <mxGeometry x="45" y="2418" width="10" height="314" as="geometry" />
        </mxCell>
        <mxCell id="H4YtO1ylQRDqALDeDLQf-102" value="" style="html=1;points=[[0,0,0,0,5],[0,1,0,0,-5],[1,0,0,0,5],[1,1,0,0,-5]];perimeter=orthogonalPerimeter;outlineConnect=0;targetShapes=umlLifeline;portConstraint=eastwest;newEdgeStyle={&quot;curved&quot;:0,&quot;rounded&quot;:0};" vertex="1" parent="B-oGz2C5baCeHcSGAwt5-28">
          <mxGeometry x="45" y="3029" width="10" height="121" as="geometry" />
        </mxCell>
        <mxCell id="B-oGz2C5baCeHcSGAwt5-38" style="edgeStyle=orthogonalEdgeStyle;rounded=0;orthogonalLoop=1;jettySize=auto;html=1;curved=0;" edge="1" parent="1" source="B-oGz2C5baCeHcSGAwt5-29">
          <mxGeometry relative="1" as="geometry">
            <mxPoint x="2632" y="762" as="targetPoint" />
            <Array as="points">
              <mxPoint x="2632" y="762" />
            </Array>
          </mxGeometry>
        </mxCell>
        <mxCell id="B-oGz2C5baCeHcSGAwt5-29" value=":SessionFacade" style="shape=umlLifeline;perimeter=lifelinePerimeter;whiteSpace=wrap;html=1;container=1;dropTarget=0;collapsible=0;recursiveResize=0;outlineConnect=0;portConstraint=eastwest;newEdgeStyle={&quot;curved&quot;:0,&quot;rounded&quot;:0};" vertex="1" parent="1">
          <mxGeometry x="1632" y="517" width="100" height="3375" as="geometry" />
        </mxCell>
        <mxCell id="H4YtO1ylQRDqALDeDLQf-5" value="" style="html=1;points=[[0,0,0,0,5],[0,1,0,0,-5],[1,0,0,0,5],[1,1,0,0,-5]];perimeter=orthogonalPerimeter;outlineConnect=0;targetShapes=umlLifeline;portConstraint=eastwest;newEdgeStyle={&quot;curved&quot;:0,&quot;rounded&quot;:0};" vertex="1" parent="B-oGz2C5baCeHcSGAwt5-29">
          <mxGeometry x="45" y="1722" width="10" height="117" as="geometry" />
        </mxCell>
        <mxCell id="H4YtO1ylQRDqALDeDLQf-94" value="" style="html=1;points=[[0,0,0,0,5],[0,1,0,0,-5],[1,0,0,0,5],[1,1,0,0,-5]];perimeter=orthogonalPerimeter;outlineConnect=0;targetShapes=umlLifeline;portConstraint=eastwest;newEdgeStyle={&quot;curved&quot;:0,&quot;rounded&quot;:0};" vertex="1" parent="B-oGz2C5baCeHcSGAwt5-29">
          <mxGeometry x="45" y="2429" width="10" height="118" as="geometry" />
        </mxCell>
        <mxCell id="H4YtO1ylQRDqALDeDLQf-103" value="" style="html=1;points=[[0,0,0,0,5],[0,1,0,0,-5],[1,0,0,0,5],[1,1,0,0,-5]];perimeter=orthogonalPerimeter;outlineConnect=0;targetShapes=umlLifeline;portConstraint=eastwest;newEdgeStyle={&quot;curved&quot;:0,&quot;rounded&quot;:0};" vertex="1" parent="B-oGz2C5baCeHcSGAwt5-29">
          <mxGeometry x="45" y="3043" width="10" height="93" as="geometry" />
        </mxCell>
        <mxCell id="B-oGz2C5baCeHcSGAwt5-30" value=":UserFacade" style="shape=umlLifeline;perimeter=lifelinePerimeter;whiteSpace=wrap;html=1;container=1;dropTarget=0;collapsible=0;recursiveResize=0;outlineConnect=0;portConstraint=eastwest;newEdgeStyle={&quot;curved&quot;:0,&quot;rounded&quot;:0};" vertex="1" parent="1">
          <mxGeometry x="1770" y="517" width="100" height="3377" as="geometry" />
        </mxCell>
        <mxCell id="H4YtO1ylQRDqALDeDLQf-6" value="" style="html=1;points=[[0,0,0,0,5],[0,1,0,0,-5],[1,0,0,0,5],[1,1,0,0,-5]];perimeter=orthogonalPerimeter;outlineConnect=0;targetShapes=umlLifeline;portConstraint=eastwest;newEdgeStyle={&quot;curved&quot;:0,&quot;rounded&quot;:0};" vertex="1" parent="B-oGz2C5baCeHcSGAwt5-30">
          <mxGeometry x="45" y="2066" width="10" height="120" as="geometry" />
        </mxCell>
        <mxCell id="H4YtO1ylQRDqALDeDLQf-96" value="" style="html=1;points=[[0,0,0,0,5],[0,1,0,0,-5],[1,0,0,0,5],[1,1,0,0,-5]];perimeter=orthogonalPerimeter;outlineConnect=0;targetShapes=umlLifeline;portConstraint=eastwest;newEdgeStyle={&quot;curved&quot;:0,&quot;rounded&quot;:0};" vertex="1" parent="B-oGz2C5baCeHcSGAwt5-30">
          <mxGeometry x="45" y="2579" width="10" height="119" as="geometry" />
        </mxCell>
        <mxCell id="B-oGz2C5baCeHcSGAwt5-35" value="LaVaultFacade.getIstance()" style="text;html=1;align=center;verticalAlign=middle;resizable=0;points=[];autosize=1;strokeColor=none;fillColor=none;" vertex="1" parent="1">
          <mxGeometry x="739" y="676" width="165" height="26" as="geometry" />
        </mxCell>
        <mxCell id="B-oGz2C5baCeHcSGAwt5-37" value="login(userCarrier)" style="text;html=1;align=center;verticalAlign=middle;resizable=0;points=[];autosize=1;strokeColor=none;fillColor=none;" vertex="1" parent="1">
          <mxGeometry x="1687" y="733" width="120" height="30" as="geometry" />
        </mxCell>
        <mxCell id="B-oGz2C5baCeHcSGAwt5-52" value="" style="endArrow=classic;html=1;rounded=0;dashed=1;" edge="1" parent="1">
          <mxGeometry width="50" height="50" relative="1" as="geometry">
            <mxPoint x="1683" y="2345" as="sourcePoint" />
            <mxPoint x="868.5" y="2345" as="targetPoint" />
          </mxGeometry>
        </mxCell>
        <mxCell id="B-oGz2C5baCeHcSGAwt5-54" value="" style="endArrow=classic;html=1;rounded=0;dashed=1;" edge="1" parent="1" target="B-oGz2C5baCeHcSGAwt5-30">
          <mxGeometry width="50" height="50" relative="1" as="geometry">
            <mxPoint x="2634" y="2664" as="sourcePoint" />
            <mxPoint x="2564" y="2664" as="targetPoint" />
          </mxGeometry>
        </mxCell>
        <mxCell id="B-oGz2C5baCeHcSGAwt5-55" value="" style="endArrow=classic;html=1;rounded=0;dashed=1;" edge="1" parent="1" target="B-oGz2C5baCeHcSGAwt5-29">
          <mxGeometry width="50" height="50" relative="1" as="geometry">
            <mxPoint x="2627" y="2319" as="sourcePoint" />
            <mxPoint x="2557" y="2319" as="targetPoint" />
          </mxGeometry>
        </mxCell>
        <mxCell id="B-oGz2C5baCeHcSGAwt5-56" value="" style="endArrow=classic;html=1;rounded=0;dashed=1;" edge="1" parent="1" target="B-oGz2C5baCeHcSGAwt5-28">
          <mxGeometry width="50" height="50" relative="1" as="geometry">
            <mxPoint x="1819" y="1759" as="sourcePoint" />
            <mxPoint x="1749" y="1759" as="targetPoint" />
          </mxGeometry>
        </mxCell>
        <mxCell id="B-oGz2C5baCeHcSGAwt5-58" value="isLogged=true" style="text;html=1;align=center;verticalAlign=middle;resizable=0;points=[];autosize=1;strokeColor=none;fillColor=none;" vertex="1" parent="1">
          <mxGeometry x="1719" y="801.5" width="100" height="30" as="geometry" />
        </mxCell>
        <mxCell id="B-oGz2C5baCeHcSGAwt5-61" value="" style="endArrow=classic;html=1;rounded=0;dashed=1;" edge="1" parent="1">
          <mxGeometry width="50" height="50" relative="1" as="geometry">
            <mxPoint x="1492.07" y="892" as="sourcePoint" />
            <mxPoint x="731.9985714285716" y="892" as="targetPoint" />
          </mxGeometry>
        </mxCell>
        <mxCell id="B-oGz2C5baCeHcSGAwt5-65" value="true" style="text;html=1;align=center;verticalAlign=middle;resizable=0;points=[];autosize=1;strokeColor=none;fillColor=none;" vertex="1" parent="1">
          <mxGeometry x="1642" y="832" width="40" height="30" as="geometry" />
        </mxCell>
        <mxCell id="B-oGz2C5baCeHcSGAwt5-67" value="true" style="text;html=1;align=center;verticalAlign=middle;resizable=0;points=[];autosize=1;strokeColor=none;fillColor=none;" vertex="1" parent="1">
          <mxGeometry x="1452" y="862" width="40" height="30" as="geometry" />
        </mxCell>
        <mxCell id="B-oGz2C5baCeHcSGAwt5-70" value="loginView.setVisible(false)" style="text;html=1;align=center;verticalAlign=middle;resizable=0;points=[];autosize=1;strokeColor=none;fillColor=none;" vertex="1" parent="1">
          <mxGeometry x="572" y="892" width="160" height="30" as="geometry" />
        </mxCell>
        <mxCell id="B-oGz2C5baCeHcSGAwt5-72" value="mostra la MainUIView" style="html=1;align=left;spacingLeft=2;endArrow=block;rounded=0;edgeStyle=orthogonalEdgeStyle;curved=0;rounded=0;" edge="1" parent="1" target="B-oGz2C5baCeHcSGAwt5-71">
          <mxGeometry relative="1" as="geometry">
            <mxPoint x="731" y="943" as="sourcePoint" />
            <Array as="points">
              <mxPoint x="761" y="973" />
            </Array>
          </mxGeometry>
        </mxCell>
        <mxCell id="B-oGz2C5baCeHcSGAwt5-73" value="" style="endArrow=none;dashed=1;html=1;dashPattern=1 3;strokeWidth=2;rounded=0;entryX=1;entryY=0.685;entryDx=0;entryDy=0;entryPerimeter=0;flowAnimation=1;exitX=0;exitY=0.689;exitDx=0;exitDy=0;exitPerimeter=0;" edge="1" parent="1" source="B-oGz2C5baCeHcSGAwt5-128">
          <mxGeometry width="50" height="50" relative="1" as="geometry">
            <mxPoint x="-178" y="1030" as="sourcePoint" />
            <mxPoint x="2692" y="1017.2450000000001" as="targetPoint" />
          </mxGeometry>
        </mxCell>
        <mxCell id="B-oGz2C5baCeHcSGAwt5-77" value="JOptionPane.showMessageDialog(...,&quot;Tutti i campi sono obbligatori&quot;,&quot;Errore di Login&quot;,...)" style="text;html=1;align=center;verticalAlign=middle;resizable=0;points=[];autosize=1;strokeColor=none;fillColor=none;" vertex="1" parent="1">
          <mxGeometry x="245" y="1057" width="487" height="26" as="geometry" />
        </mxCell>
        <mxCell id="B-oGz2C5baCeHcSGAwt5-78" value="" style="endArrow=none;dashed=1;html=1;dashPattern=1 3;strokeWidth=2;rounded=0;entryX=1.001;entryY=0.586;entryDx=0;entryDy=0;entryPerimeter=0;flowAnimation=1;exitX=0.086;exitY=-0.016;exitDx=0;exitDy=0;exitPerimeter=0;" edge="1" parent="1" source="B-oGz2C5baCeHcSGAwt5-87">
          <mxGeometry width="50" height="50" relative="1" as="geometry">
            <mxPoint x="-178" y="1100" as="sourcePoint" />
            <mxPoint x="2695" y="1096" as="targetPoint" />
          </mxGeometry>
        </mxCell>
        <mxCell id="B-oGz2C5baCeHcSGAwt5-81" value="JOptionPane.showMessageDialog(...,&quot;Credenziali errate&quot;,&quot;Errore di Login&quot;,...)" style="text;html=1;align=center;verticalAlign=middle;resizable=0;points=[];autosize=1;strokeColor=none;fillColor=none;" vertex="1" parent="1">
          <mxGeometry x="296" y="1126" width="430" height="26" as="geometry" />
        </mxCell>
        <mxCell id="B-oGz2C5baCeHcSGAwt5-83" value="loginView.clearFields()" style="text;html=1;align=center;verticalAlign=middle;resizable=0;points=[];autosize=1;strokeColor=none;fillColor=none;" vertex="1" parent="1">
          <mxGeometry x="594" y="1156" width="138" height="26" as="geometry" />
        </mxCell>
        <mxCell id="B-oGz2C5baCeHcSGAwt5-84" value="nasconde la LoginView" style="text;html=1;align=center;verticalAlign=middle;resizable=0;points=[];autosize=1;strokeColor=none;fillColor=none;" vertex="1" parent="1">
          <mxGeometry x="408" y="894" width="141" height="26" as="geometry" />
        </mxCell>
        <mxCell id="B-oGz2C5baCeHcSGAwt5-85" value="o" style="text;html=1;align=center;verticalAlign=middle;resizable=0;points=[];autosize=1;strokeColor=#B20000;fillColor=#e51400;fontColor=#ffffff;" vertex="1" parent="1">
          <mxGeometry x="549" y="893" width="25" height="26" as="geometry" />
        </mxCell>
        <mxCell id="B-oGz2C5baCeHcSGAwt5-86" value="" style="html=1;points=[[0,0,0,0,5],[0,1,0,0,-5],[1,0,0,0,5],[1,1,0,0,-5]];perimeter=orthogonalPerimeter;outlineConnect=0;targetShapes=umlLifeline;portConstraint=eastwest;newEdgeStyle={&quot;curved&quot;:0,&quot;rounded&quot;:0};" vertex="1" parent="1">
          <mxGeometry x="-103" y="597" width="10" height="595" as="geometry" />
        </mxCell>
        <mxCell id="B-oGz2C5baCeHcSGAwt5-87" value="[&quot;Credenziali errate&quot;]" style="text;html=1;align=center;verticalAlign=middle;resizable=0;points=[];autosize=1;strokeColor=none;fillColor=none;" vertex="1" parent="1">
          <mxGeometry x="-168" y="1100" width="128" height="26" as="geometry" />
        </mxCell>
        <mxCell id="B-oGz2C5baCeHcSGAwt5-88" value="[&quot;Campi vuoti&quot;]" style="text;html=1;align=center;verticalAlign=middle;resizable=0;points=[];autosize=1;strokeColor=none;fillColor=none;" vertex="1" parent="1">
          <mxGeometry x="-168" y="1031" width="97" height="26" as="geometry" />
        </mxCell>
        <mxCell id="B-oGz2C5baCeHcSGAwt5-89" value="[&quot;Utente loggato&quot;]" style="text;html=1;align=center;verticalAlign=middle;resizable=0;points=[];autosize=1;strokeColor=none;fillColor=none;" vertex="1" parent="1">
          <mxGeometry x="-103" y="618" width="120" height="30" as="geometry" />
        </mxCell>
        <mxCell id="B-oGz2C5baCeHcSGAwt5-90" value="" style="html=1;points=[[0,0,0,0,5],[0,1,0,0,-5],[1,0,0,0,5],[1,1,0,0,-5]];perimeter=orthogonalPerimeter;outlineConnect=0;targetShapes=umlLifeline;portConstraint=eastwest;newEdgeStyle={&quot;curved&quot;:0,&quot;rounded&quot;:0};" vertex="1" parent="1">
          <mxGeometry x="1487" y="692" width="10" height="210" as="geometry" />
        </mxCell>
        <mxCell id="B-oGz2C5baCeHcSGAwt5-92" value="" style="html=1;points=[[0,0,0,0,5],[0,1,0,0,-5],[1,0,0,0,5],[1,1,0,0,-5]];perimeter=orthogonalPerimeter;outlineConnect=0;targetShapes=umlLifeline;portConstraint=eastwest;newEdgeStyle={&quot;curved&quot;:0,&quot;rounded&quot;:0};" vertex="1" parent="1">
          <mxGeometry x="1677" y="718" width="10" height="158" as="geometry" />
        </mxCell>
        <mxCell id="B-oGz2C5baCeHcSGAwt5-93" value="" style="html=1;points=[[0,0,0,0,5],[0,1,0,0,-5],[1,0,0,0,5],[1,1,0,0,-5]];perimeter=orthogonalPerimeter;outlineConnect=0;targetShapes=umlLifeline;portConstraint=eastwest;newEdgeStyle={&quot;curved&quot;:0,&quot;rounded&quot;:0};" vertex="1" parent="1">
          <mxGeometry x="1815" y="791" width="10" height="51" as="geometry" />
        </mxCell>
        <mxCell id="B-oGz2C5baCeHcSGAwt5-96" value="alternativa" style="shape=umlFrame;whiteSpace=wrap;html=1;pointerEvents=0;width=70;height=30;fillColor=#fa6800;fontColor=#000000;strokeColor=#C73500;strokeWidth=2;" vertex="1" parent="1">
          <mxGeometry x="-33" y="1269" width="2725" height="728" as="geometry" />
        </mxCell>
        <mxCell id="B-oGz2C5baCeHcSGAwt5-97" value="Sign in" style="shape=umlFrame;whiteSpace=wrap;html=1;pointerEvents=0;fillColor=#0050ef;fontColor=#ffffff;strokeColor=#001DBC;strokeWidth=2;" vertex="1" parent="1">
          <mxGeometry x="-441" y="1219" width="3143" height="792" as="geometry" />
        </mxCell>
        <mxCell id="B-oGz2C5baCeHcSGAwt5-122" style="edgeStyle=orthogonalEdgeStyle;rounded=0;orthogonalLoop=1;jettySize=auto;html=1;curved=0;" edge="1" parent="1" target="H4YtO1ylQRDqALDeDLQf-56">
          <mxGeometry relative="1" as="geometry">
            <mxPoint x="868.0039393939396" y="3802.51" as="sourcePoint" />
            <mxPoint x="1057.6099999999997" y="3802.51" as="targetPoint" />
            <Array as="points">
              <mxPoint x="970" y="3803" />
              <mxPoint x="970" y="3803" />
            </Array>
          </mxGeometry>
        </mxCell>
        <mxCell id="B-oGz2C5baCeHcSGAwt5-124" style="edgeStyle=orthogonalEdgeStyle;rounded=0;orthogonalLoop=1;jettySize=auto;html=1;curved=0;" edge="1" parent="1" target="B-oGz2C5baCeHcSGAwt5-26">
          <mxGeometry relative="1" as="geometry">
            <mxPoint x="-327.9960606060604" y="1258.01" as="sourcePoint" />
            <mxPoint x="-138.39000000000033" y="1258.01" as="targetPoint" />
            <Array as="points">
              <mxPoint x="-60" y="1258" />
              <mxPoint x="-60" y="1258" />
            </Array>
          </mxGeometry>
        </mxCell>
        <mxCell id="B-oGz2C5baCeHcSGAwt5-125" value="Clicca il bottone &quot;Sign in&quot;" style="text;html=1;align=center;verticalAlign=middle;resizable=0;points=[];autosize=1;strokeColor=none;fillColor=none;" vertex="1" parent="1">
          <mxGeometry x="-329" y="1232" width="151" height="26" as="geometry" />
        </mxCell>
        <mxCell id="B-oGz2C5baCeHcSGAwt5-126" style="edgeStyle=orthogonalEdgeStyle;rounded=0;orthogonalLoop=1;jettySize=auto;html=1;curved=0;" edge="1" parent="1">
          <mxGeometry relative="1" as="geometry">
            <mxPoint x="42.50393939393962" y="1394.01" as="sourcePoint" />
            <mxPoint x="732.0000000000005" y="1393.9565217391305" as="targetPoint" />
            <Array as="points">
              <mxPoint x="546.5" y="1394" />
              <mxPoint x="546.5" y="1394" />
            </Array>
          </mxGeometry>
        </mxCell>
        <mxCell id="B-oGz2C5baCeHcSGAwt5-127" value="Inserisce username, email e password" style="text;html=1;align=center;verticalAlign=middle;resizable=0;points=[];autosize=1;strokeColor=none;fillColor=none;" vertex="1" parent="1">
          <mxGeometry x="42.5" y="1368" width="223" height="26" as="geometry" />
        </mxCell>
        <mxCell id="B-oGz2C5baCeHcSGAwt5-128" value="alternativa" style="shape=umlFrame;whiteSpace=wrap;html=1;pointerEvents=0;width=70;height=30;fillColor=#fa6800;fontColor=#000000;strokeColor=#C73500;strokeWidth=2;" vertex="1" parent="1">
          <mxGeometry x="-168" y="622" width="2861" height="577" as="geometry" />
        </mxCell>
        <mxCell id="B-oGz2C5baCeHcSGAwt5-129" value="[&quot;Campi vuoti&quot;]" style="text;html=1;align=center;verticalAlign=middle;resizable=0;points=[];autosize=1;strokeColor=none;fillColor=none;" vertex="1" parent="1">
          <mxGeometry x="37" y="1271" width="97" height="26" as="geometry" />
        </mxCell>
        <mxCell id="B-oGz2C5baCeHcSGAwt5-130" value="" style="endArrow=classic;html=1;rounded=0;dashed=1;" edge="1" parent="1" target="B-oGz2C5baCeHcSGAwt5-26">
          <mxGeometry width="50" height="50" relative="1" as="geometry">
            <mxPoint x="732.55" y="1316" as="sourcePoint" />
            <mxPoint x="42" y="1316" as="targetPoint" />
          </mxGeometry>
        </mxCell>
        <mxCell id="B-oGz2C5baCeHcSGAwt5-131" value="JOptionPane.showMessageDialog(...,&quot;Tutti i campi sono obbligatori&quot;,&quot;Errore di registrazione&quot;,...)" style="text;html=1;align=center;verticalAlign=middle;resizable=0;points=[];autosize=1;strokeColor=none;fillColor=none;" vertex="1" parent="1">
          <mxGeometry x="212" y="1290" width="527" height="26" as="geometry" />
        </mxCell>
        <mxCell id="B-oGz2C5baCeHcSGAwt5-132" value="" style="endArrow=none;dashed=1;html=1;dashPattern=1 3;strokeWidth=2;rounded=0;flowAnimation=1;exitX=0;exitY=0.098;exitDx=0;exitDy=0;exitPerimeter=0;" edge="1" parent="1">
          <mxGeometry width="50" height="50" relative="1" as="geometry">
            <mxPoint x="-34" y="1338.0020000000002" as="sourcePoint" />
            <mxPoint x="2692" y="1339" as="targetPoint" />
          </mxGeometry>
        </mxCell>
        <mxCell id="B-oGz2C5baCeHcSGAwt5-133" value="[&quot;Campi non vuoti&quot;]" style="text;html=1;align=center;verticalAlign=middle;resizable=0;points=[];autosize=1;strokeColor=none;fillColor=none;" vertex="1" parent="1">
          <mxGeometry x="34" y="1338" width="120" height="26" as="geometry" />
        </mxCell>
        <mxCell id="B-oGz2C5baCeHcSGAwt5-134" style="edgeStyle=orthogonalEdgeStyle;rounded=0;orthogonalLoop=1;jettySize=auto;html=1;curved=0;" edge="1" parent="1" target="B-oGz2C5baCeHcSGAwt5-28">
          <mxGeometry relative="1" as="geometry">
            <mxPoint x="732.0039393939396" y="1420.05" as="sourcePoint" />
            <mxPoint x="1421.5000000000005" y="1419.9965217391305" as="targetPoint" />
            <Array as="points">
              <mxPoint x="1322" y="1421" />
              <mxPoint x="1322" y="1421" />
            </Array>
          </mxGeometry>
        </mxCell>
        <mxCell id="B-oGz2C5baCeHcSGAwt5-136" value="LaVaultFacade.getIstance()" style="text;html=1;align=center;verticalAlign=middle;resizable=0;points=[];autosize=1;strokeColor=none;fillColor=none;" vertex="1" parent="1">
          <mxGeometry x="739" y="1394" width="165" height="26" as="geometry" />
        </mxCell>
        <mxCell id="B-oGz2C5baCeHcSGAwt5-137" style="edgeStyle=orthogonalEdgeStyle;rounded=0;orthogonalLoop=1;jettySize=auto;html=1;curved=0;" edge="1" parent="1">
          <mxGeometry relative="1" as="geometry">
            <mxPoint x="1490.3939393939395" y="1449.3899999999999" as="sourcePoint" />
            <mxPoint x="1680" y="1449.3899999999999" as="targetPoint" />
            <Array as="points">
              <mxPoint x="1542.5" y="1449.3899999999999" />
              <mxPoint x="1542.5" y="1449.3899999999999" />
            </Array>
          </mxGeometry>
        </mxCell>
        <mxCell id="B-oGz2C5baCeHcSGAwt5-138" value="login(userCarrier)" style="text;html=1;align=center;verticalAlign=middle;resizable=0;points=[];autosize=1;strokeColor=none;fillColor=none;" vertex="1" parent="1">
          <mxGeometry x="1687" y="1448" width="120" height="30" as="geometry" />
        </mxCell>
        <mxCell id="B-oGz2C5baCeHcSGAwt5-140" style="edgeStyle=orthogonalEdgeStyle;rounded=0;orthogonalLoop=1;jettySize=auto;html=1;curved=0;" edge="1" parent="1">
          <mxGeometry relative="1" as="geometry">
            <mxPoint x="2633" y="1480" as="targetPoint" />
            <mxPoint x="1682" y="1480" as="sourcePoint" />
            <Array as="points">
              <mxPoint x="2633" y="1480" />
            </Array>
          </mxGeometry>
        </mxCell>
        <mxCell id="B-oGz2C5baCeHcSGAwt5-142" value="Risultato" style="text;html=1;align=center;verticalAlign=middle;resizable=0;points=[];autosize=1;strokeColor=none;fillColor=none;" vertex="1" parent="1">
          <mxGeometry x="2562" y="775.5" width="65" height="26" as="geometry" />
        </mxCell>
        <mxCell id="B-oGz2C5baCeHcSGAwt5-143" value="" style="endArrow=classic;html=1;rounded=0;dashed=1;" edge="1" parent="1" target="B-oGz2C5baCeHcSGAwt5-29">
          <mxGeometry width="50" height="50" relative="1" as="geometry">
            <mxPoint x="2634.33" y="1518.5" as="sourcePoint" />
            <mxPoint x="1821.996666666667" y="1518.5" as="targetPoint" />
          </mxGeometry>
        </mxCell>
        <mxCell id="B-oGz2C5baCeHcSGAwt5-144" value="Risultato" style="text;html=1;align=center;verticalAlign=middle;resizable=0;points=[];autosize=1;strokeColor=none;fillColor=none;" vertex="1" parent="1">
          <mxGeometry x="2564" y="1492" width="65" height="26" as="geometry" />
        </mxCell>
        <mxCell id="B-oGz2C5baCeHcSGAwt5-147" value="" style="endArrow=classic;html=1;rounded=0;dashed=1;" edge="1" parent="1">
          <mxGeometry width="50" height="50" relative="1" as="geometry">
            <mxPoint x="1682.07" y="1591" as="sourcePoint" />
            <mxPoint x="1491.9985714285715" y="1591" as="targetPoint" />
          </mxGeometry>
        </mxCell>
        <mxCell id="B-oGz2C5baCeHcSGAwt5-148" value="SessionFacade.isLogged()&lt;div&gt;(isLogged=true&lt;div&gt;se stato trovato)&lt;/div&gt;&lt;/div&gt;" style="text;html=1;align=center;verticalAlign=middle;resizable=0;points=[];autosize=1;strokeColor=none;fillColor=none;" vertex="1" parent="1">
          <mxGeometry x="1522" y="1536" width="161" height="55" as="geometry" />
        </mxCell>
        <mxCell id="B-oGz2C5baCeHcSGAwt5-149" value="alternativa" style="shape=umlFrame;whiteSpace=wrap;html=1;pointerEvents=0;width=70;height=30;fillColor=#fa6800;fontColor=#000000;strokeColor=#C73500;strokeWidth=2;" vertex="1" parent="1">
          <mxGeometry x="-23" y="1606" width="2705" height="377" as="geometry" />
        </mxCell>
        <mxCell id="B-oGz2C5baCeHcSGAwt5-151" value="[sessionFacade.isLogged()==false]" style="text;html=1;align=center;verticalAlign=middle;resizable=0;points=[];autosize=1;strokeColor=none;fillColor=none;" vertex="1" parent="1">
          <mxGeometry x="51.5" y="1610" width="205" height="26" as="geometry" />
        </mxCell>
        <mxCell id="B-oGz2C5baCeHcSGAwt5-152" style="edgeStyle=orthogonalEdgeStyle;rounded=0;orthogonalLoop=1;jettySize=auto;html=1;curved=0;" edge="1" parent="1">
          <mxGeometry relative="1" as="geometry">
            <mxPoint x="730.0039393939396" y="1646.05" as="sourcePoint" />
            <mxPoint x="1490" y="1646" as="targetPoint" />
            <Array as="points">
              <mxPoint x="1320" y="1647" />
              <mxPoint x="1320" y="1647" />
            </Array>
          </mxGeometry>
        </mxCell>
        <mxCell id="B-oGz2C5baCeHcSGAwt5-153" value="LaVaultFacade.getIstance()" style="text;html=1;align=center;verticalAlign=middle;resizable=0;points=[];autosize=1;strokeColor=none;fillColor=none;" vertex="1" parent="1">
          <mxGeometry x="739" y="1620" width="165" height="26" as="geometry" />
        </mxCell>
        <mxCell id="B-oGz2C5baCeHcSGAwt5-154" style="edgeStyle=orthogonalEdgeStyle;rounded=0;orthogonalLoop=1;jettySize=auto;html=1;curved=0;" edge="1" parent="1" target="B-oGz2C5baCeHcSGAwt5-30">
          <mxGeometry relative="1" as="geometry">
            <mxPoint x="1492.3939393939395" y="1675.3899999999999" as="sourcePoint" />
            <mxPoint x="1682" y="1675" as="targetPoint" />
            <Array as="points">
              <mxPoint x="1740" y="1676" />
              <mxPoint x="1740" y="1676" />
            </Array>
          </mxGeometry>
        </mxCell>
        <mxCell id="B-oGz2C5baCeHcSGAwt5-155" value="createAccount(userCarrier)" style="text;html=1;align=center;verticalAlign=middle;resizable=0;points=[];autosize=1;strokeColor=none;fillColor=none;" vertex="1" parent="1">
          <mxGeometry x="1825" y="1675" width="163" height="26" as="geometry" />
        </mxCell>
        <mxCell id="B-oGz2C5baCeHcSGAwt5-159" value="" style="endArrow=classic;html=1;rounded=0;" edge="1" parent="1">
          <mxGeometry width="50" height="50" relative="1" as="geometry">
            <mxPoint x="1818.9985714285717" y="1702" as="sourcePoint" />
            <mxPoint x="2631.52703125" y="1702" as="targetPoint" />
          </mxGeometry>
        </mxCell>
        <mxCell id="B-oGz2C5baCeHcSGAwt5-160" value="" style="endArrow=classic;html=1;rounded=0;dashed=1;" edge="1" parent="1">
          <mxGeometry width="50" height="50" relative="1" as="geometry">
            <mxPoint x="2635.33" y="1744.5" as="sourcePoint" />
            <mxPoint x="1822.996666666667" y="1744.5" as="targetPoint" />
          </mxGeometry>
        </mxCell>
        <mxCell id="B-oGz2C5baCeHcSGAwt5-161" value="Risultato: true per conferma creazione" style="text;html=1;align=center;verticalAlign=middle;resizable=0;points=[];autosize=1;strokeColor=none;fillColor=none;" vertex="1" parent="1">
          <mxGeometry x="2411" y="1718" width="221" height="26" as="geometry" />
        </mxCell>
        <mxCell id="B-oGz2C5baCeHcSGAwt5-163" value="" style="endArrow=classic;html=1;rounded=0;dashed=1;" edge="1" parent="1" target="B-oGz2C5baCeHcSGAwt5-21">
          <mxGeometry width="50" height="50" relative="1" as="geometry">
            <mxPoint x="1492" y="1772" as="sourcePoint" />
            <mxPoint x="1164" y="1772" as="targetPoint" />
          </mxGeometry>
        </mxCell>
        <mxCell id="B-oGz2C5baCeHcSGAwt5-168" value="mostra la schermata di login" style="html=1;align=left;spacingLeft=2;endArrow=block;rounded=0;edgeStyle=orthogonalEdgeStyle;curved=0;rounded=0;" edge="1" parent="1">
          <mxGeometry relative="1" as="geometry">
            <mxPoint x="732" y="1826" as="sourcePoint" />
            <Array as="points">
              <mxPoint x="762" y="1856" />
            </Array>
            <mxPoint x="738" y="1856" as="targetPoint" />
          </mxGeometry>
        </mxCell>
        <mxCell id="B-oGz2C5baCeHcSGAwt5-169" value="" style="endArrow=classic;html=1;rounded=0;dashed=1;" edge="1" parent="1">
          <mxGeometry width="50" height="50" relative="1" as="geometry">
            <mxPoint x="732" y="1800" as="sourcePoint" />
            <mxPoint x="45.25" y="1800" as="targetPoint" />
          </mxGeometry>
        </mxCell>
        <mxCell id="B-oGz2C5baCeHcSGAwt5-170" value="nasconde la RegisterView" style="text;html=1;align=center;verticalAlign=middle;resizable=0;points=[];autosize=1;strokeColor=none;fillColor=none;" vertex="1" parent="1">
          <mxGeometry x="575" y="1773" width="157" height="26" as="geometry" />
        </mxCell>
        <mxCell id="B-oGz2C5baCeHcSGAwt5-171" value="" style="endArrow=none;dashed=1;html=1;dashPattern=1 3;strokeWidth=2;rounded=0;entryX=1;entryY=0.702;entryDx=0;entryDy=0;entryPerimeter=0;flowAnimation=1;exitX=0;exitY=0.098;exitDx=0;exitDy=0;exitPerimeter=0;" edge="1" parent="1" target="B-oGz2C5baCeHcSGAwt5-149">
          <mxGeometry width="50" height="50" relative="1" as="geometry">
            <mxPoint x="-23" y="1870.0020000000004" as="sourcePoint" />
            <mxPoint x="2847" y="1872.04" as="targetPoint" />
          </mxGeometry>
        </mxCell>
        <mxCell id="B-oGz2C5baCeHcSGAwt5-172" value="[sessionFacade.isLogged()==true]" style="text;html=1;align=center;verticalAlign=middle;resizable=0;points=[];autosize=1;strokeColor=none;fillColor=none;" vertex="1" parent="1">
          <mxGeometry x="-17" y="1874" width="200" height="26" as="geometry" />
        </mxCell>
        <mxCell id="B-oGz2C5baCeHcSGAwt5-173" value="" style="endArrow=classic;html=1;rounded=0;dashed=1;" edge="1" parent="1" source="B-oGz2C5baCeHcSGAwt5-21">
          <mxGeometry width="50" height="50" relative="1" as="geometry">
            <mxPoint x="732" y="1931" as="sourcePoint" />
            <mxPoint x="42.497368421052954" y="1931" as="targetPoint" />
          </mxGeometry>
        </mxCell>
        <mxCell id="B-oGz2C5baCeHcSGAwt5-174" value="JOptionPane.showMessageDialog(...,&quot;Utente già presente&quot;,&quot;Errore di Registrazione&quot;,...)" style="text;html=1;align=center;verticalAlign=middle;resizable=0;points=[];autosize=1;strokeColor=none;fillColor=none;" vertex="1" parent="1">
          <mxGeometry x="248" y="1903" width="484" height="26" as="geometry" />
        </mxCell>
        <mxCell id="B-oGz2C5baCeHcSGAwt5-175" value="" style="endArrow=classic;html=1;rounded=0;dashed=1;" edge="1" parent="1" source="B-oGz2C5baCeHcSGAwt5-21">
          <mxGeometry width="50" height="50" relative="1" as="geometry">
            <mxPoint x="873.05" y="1962" as="sourcePoint" />
            <mxPoint x="42.497368421052954" y="1962" as="targetPoint" />
          </mxGeometry>
        </mxCell>
        <mxCell id="B-oGz2C5baCeHcSGAwt5-176" value="registerView.clearFields()" style="text;html=1;align=center;verticalAlign=middle;resizable=0;points=[];autosize=1;strokeColor=none;fillColor=none;" vertex="1" parent="1">
          <mxGeometry x="577" y="1934" width="153" height="26" as="geometry" />
        </mxCell>
        <mxCell id="B-oGz2C5baCeHcSGAwt5-181" value="" style="html=1;points=[[0,0,0,0,5],[0,1,0,0,-5],[1,0,0,0,5],[1,1,0,0,-5]];perimeter=orthogonalPerimeter;outlineConnect=0;targetShapes=umlLifeline;portConstraint=eastwest;newEdgeStyle={&quot;curved&quot;:0,&quot;rounded&quot;:0};" vertex="1" parent="1">
          <mxGeometry x="1677" y="1433" width="10" height="169" as="geometry" />
        </mxCell>
        <mxCell id="B-oGz2C5baCeHcSGAwt5-183" value="" style="html=1;points=[[0,0,0,0,5],[0,1,0,0,-5],[1,0,0,0,5],[1,1,0,0,-5]];perimeter=orthogonalPerimeter;outlineConnect=0;targetShapes=umlLifeline;portConstraint=eastwest;newEdgeStyle={&quot;curved&quot;:0,&quot;rounded&quot;:0};" vertex="1" parent="1">
          <mxGeometry x="1815" y="1658" width="10" height="111" as="geometry" />
        </mxCell>
        <mxCell id="P6vbPu3KbrZlHX-8Sn77-1" value="" style="shape=umlLifeline;perimeter=lifelinePerimeter;whiteSpace=wrap;html=1;container=1;dropTarget=0;collapsible=0;recursiveResize=0;outlineConnect=0;portConstraint=eastwest;newEdgeStyle={&quot;curved&quot;:0,&quot;rounded&quot;:0};participant=umlActor;size=40;strokeWidth=2;rounded=0;" vertex="1" parent="1">
          <mxGeometry x="2622" y="465" width="20" height="3437" as="geometry" />
        </mxCell>
        <mxCell id="H4YtO1ylQRDqALDeDLQf-7" value="" style="html=1;points=[[0,0,0,0,5],[0,1,0,0,-5],[1,0,0,0,5],[1,1,0,0,-5]];perimeter=orthogonalPerimeter;outlineConnect=0;targetShapes=umlLifeline;portConstraint=eastwest;newEdgeStyle={&quot;curved&quot;:0,&quot;rounded&quot;:0};" vertex="1" parent="P6vbPu3KbrZlHX-8Sn77-1">
          <mxGeometry x="5" y="1792.5" width="10" height="79.5" as="geometry" />
        </mxCell>
        <mxCell id="H4YtO1ylQRDqALDeDLQf-95" value="" style="html=1;points=[[0,0,0,0,5],[0,1,0,0,-5],[1,0,0,0,5],[1,1,0,0,-5]];perimeter=orthogonalPerimeter;outlineConnect=0;targetShapes=umlLifeline;portConstraint=eastwest;newEdgeStyle={&quot;curved&quot;:0,&quot;rounded&quot;:0};" vertex="1" parent="P6vbPu3KbrZlHX-8Sn77-1">
          <mxGeometry x="5" y="2489" width="10" height="85" as="geometry" />
        </mxCell>
        <mxCell id="H4YtO1ylQRDqALDeDLQf-98" value="" style="html=1;points=[[0,0,0,0,5],[0,1,0,0,-5],[1,0,0,0,5],[1,1,0,0,-5]];perimeter=orthogonalPerimeter;outlineConnect=0;targetShapes=umlLifeline;portConstraint=eastwest;newEdgeStyle={&quot;curved&quot;:0,&quot;rounded&quot;:0};" vertex="1" parent="P6vbPu3KbrZlHX-8Sn77-1">
          <mxGeometry x="5" y="2659" width="10" height="75" as="geometry" />
        </mxCell>
        <mxCell id="H4YtO1ylQRDqALDeDLQf-99" value="" style="html=1;points=[[0,0,0,0,5],[0,1,0,0,-5],[1,0,0,0,5],[1,1,0,0,-5]];perimeter=orthogonalPerimeter;outlineConnect=0;targetShapes=umlLifeline;portConstraint=eastwest;newEdgeStyle={&quot;curved&quot;:0,&quot;rounded&quot;:0};" vertex="1" parent="P6vbPu3KbrZlHX-8Sn77-1">
          <mxGeometry x="5" y="2139" width="10" height="72" as="geometry" />
        </mxCell>
        <mxCell id="B-oGz2C5baCeHcSGAwt5-184" value="" style="html=1;points=[[0,0,0,0,5],[0,1,0,0,-5],[1,0,0,0,5],[1,1,0,0,-5]];perimeter=orthogonalPerimeter;outlineConnect=0;targetShapes=umlLifeline;portConstraint=eastwest;newEdgeStyle={&quot;curved&quot;:0,&quot;rounded&quot;:0};" vertex="1" parent="P6vbPu3KbrZlHX-8Sn77-1">
          <mxGeometry x="5" y="1220" width="10" height="72" as="geometry" />
        </mxCell>
        <mxCell id="B-oGz2C5baCeHcSGAwt5-182" value="" style="html=1;points=[[0,0,0,0,5],[0,1,0,0,-5],[1,0,0,0,5],[1,1,0,0,-5]];perimeter=orthogonalPerimeter;outlineConnect=0;targetShapes=umlLifeline;portConstraint=eastwest;newEdgeStyle={&quot;curved&quot;:0,&quot;rounded&quot;:0};" vertex="1" parent="P6vbPu3KbrZlHX-8Sn77-1">
          <mxGeometry x="5" y="998" width="10" height="69" as="geometry" />
        </mxCell>
        <mxCell id="B-oGz2C5baCeHcSGAwt5-94" value="" style="html=1;points=[[0,0,0,0,5],[0,1,0,0,-5],[1,0,0,0,5],[1,1,0,0,-5]];perimeter=orthogonalPerimeter;outlineConnect=0;targetShapes=umlLifeline;portConstraint=eastwest;newEdgeStyle={&quot;curved&quot;:0,&quot;rounded&quot;:0};" vertex="1" parent="P6vbPu3KbrZlHX-8Sn77-1">
          <mxGeometry x="5" y="281" width="10" height="73" as="geometry" />
        </mxCell>
        <mxCell id="P6vbPu3KbrZlHX-8Sn77-3" value="Database" style="shape=cylinder3;whiteSpace=wrap;html=1;boundedLbl=1;backgroundOutline=1;size=15;strokeWidth=2;" vertex="1" parent="1">
          <mxGeometry x="2602" y="432" width="60" height="80" as="geometry" />
        </mxCell>
        <mxCell id="P6vbPu3KbrZlHX-8Sn77-4" value="" style="endArrow=classic;html=1;rounded=0;dashed=1;" edge="1" parent="1">
          <mxGeometry width="50" height="50" relative="1" as="geometry">
            <mxPoint x="2632.33" y="802" as="sourcePoint" />
            <mxPoint x="1819.996666666667" y="802" as="targetPoint" />
          </mxGeometry>
        </mxCell>
        <mxCell id="P6vbPu3KbrZlHX-8Sn77-5" value="" style="endArrow=classic;html=1;rounded=0;dashed=1;" edge="1" parent="1">
          <mxGeometry width="50" height="50" relative="1" as="geometry">
            <mxPoint x="1819.33" y="832" as="sourcePoint" />
            <mxPoint x="1681.9966666666674" y="832" as="targetPoint" />
          </mxGeometry>
        </mxCell>
        <mxCell id="P6vbPu3KbrZlHX-8Sn77-6" value="" style="endArrow=classic;html=1;rounded=0;dashed=1;" edge="1" parent="1">
          <mxGeometry width="50" height="50" relative="1" as="geometry">
            <mxPoint x="1682" y="862" as="sourcePoint" />
            <mxPoint x="1491.9285714285716" y="862" as="targetPoint" />
          </mxGeometry>
        </mxCell>
        <mxCell id="P6vbPu3KbrZlHX-8Sn77-7" style="edgeStyle=orthogonalEdgeStyle;rounded=0;orthogonalLoop=1;jettySize=auto;html=1;curved=0;" edge="1" parent="1">
          <mxGeometry relative="1" as="geometry">
            <mxPoint x="733.95" y="922.0038095238094" as="sourcePoint" />
            <mxPoint x="-96.0023809523812" y="922.0038095238094" as="targetPoint" />
            <Array as="points">
              <mxPoint x="114.44999999999999" y="922.48" />
              <mxPoint x="114.44999999999999" y="922.48" />
            </Array>
          </mxGeometry>
        </mxCell>
        <mxCell id="P6vbPu3KbrZlHX-8Sn77-8" value="" style="endArrow=classic;html=1;rounded=0;dashed=1;" edge="1" parent="1">
          <mxGeometry width="50" height="50" relative="1" as="geometry">
            <mxPoint x="732.55" y="1083" as="sourcePoint" />
            <mxPoint x="-98.00263157894705" y="1083" as="targetPoint" />
          </mxGeometry>
        </mxCell>
        <mxCell id="P6vbPu3KbrZlHX-8Sn77-9" value="" style="endArrow=classic;html=1;rounded=0;dashed=1;" edge="1" parent="1">
          <mxGeometry width="50" height="50" relative="1" as="geometry">
            <mxPoint x="732.55" y="1152" as="sourcePoint" />
            <mxPoint x="-98.00263157894705" y="1152" as="targetPoint" />
          </mxGeometry>
        </mxCell>
        <mxCell id="P6vbPu3KbrZlHX-8Sn77-10" value="" style="endArrow=classic;html=1;rounded=0;dashed=1;" edge="1" parent="1">
          <mxGeometry width="50" height="50" relative="1" as="geometry">
            <mxPoint x="732.55" y="1183" as="sourcePoint" />
            <mxPoint x="-98.00263157894705" y="1183" as="targetPoint" />
          </mxGeometry>
        </mxCell>
        <mxCell id="P6vbPu3KbrZlHX-8Sn77-11" value="Update Password" style="shape=umlFrame;whiteSpace=wrap;html=1;pointerEvents=0;fillColor=#0050ef;fontColor=#ffffff;strokeColor=#001DBC;width=107;height=36;strokeWidth=2;" vertex="1" parent="1">
          <mxGeometry x="-441" y="2024" width="3143" height="819" as="geometry" />
        </mxCell>
        <mxCell id="P6vbPu3KbrZlHX-8Sn77-12" value=":AccountController" style="shape=umlLifeline;perimeter=lifelinePerimeter;whiteSpace=wrap;html=1;container=1;dropTarget=0;collapsible=0;recursiveResize=0;outlineConnect=0;portConstraint=eastwest;newEdgeStyle={&quot;curved&quot;:0,&quot;rounded&quot;:0};" vertex="1" parent="1">
          <mxGeometry x="816" y="517" width="106" height="3374" as="geometry" />
        </mxCell>
        <mxCell id="H4YtO1ylQRDqALDeDLQf-3" value="" style="html=1;points=[[0,0,0,0,5],[0,1,0,0,-5],[1,0,0,0,5],[1,1,0,0,-5]];perimeter=orthogonalPerimeter;outlineConnect=0;targetShapes=umlLifeline;portConstraint=eastwest;newEdgeStyle={&quot;curved&quot;:0,&quot;rounded&quot;:0};" vertex="1" parent="P6vbPu3KbrZlHX-8Sn77-12">
          <mxGeometry x="48" y="1593" width="10" height="711" as="geometry" />
        </mxCell>
        <mxCell id="H4YtO1ylQRDqALDeDLQf-101" value="" style="html=1;points=[[0,0,0,0,5],[0,1,0,0,-5],[1,0,0,0,5],[1,1,0,0,-5]];perimeter=orthogonalPerimeter;outlineConnect=0;targetShapes=umlLifeline;portConstraint=eastwest;newEdgeStyle={&quot;curved&quot;:0,&quot;rounded&quot;:0};" vertex="1" parent="P6vbPu3KbrZlHX-8Sn77-12">
          <mxGeometry x="49" y="3005" width="10" height="299" as="geometry" />
        </mxCell>
        <mxCell id="P6vbPu3KbrZlHX-8Sn77-15" value=":AccountPanel" style="shape=umlLifeline;perimeter=lifelinePerimeter;whiteSpace=wrap;html=1;container=1;dropTarget=0;collapsible=0;recursiveResize=0;outlineConnect=0;portConstraint=eastwest;newEdgeStyle={&quot;curved&quot;:0,&quot;rounded&quot;:0};" vertex="1" parent="1">
          <mxGeometry x="130" y="512" width="106" height="3387" as="geometry" />
        </mxCell>
        <mxCell id="H4YtO1ylQRDqALDeDLQf-2" value="" style="html=1;points=[[0,0,0,0,5],[0,1,0,0,-5],[1,0,0,0,5],[1,1,0,0,-5]];perimeter=orthogonalPerimeter;outlineConnect=0;targetShapes=umlLifeline;portConstraint=eastwest;newEdgeStyle={&quot;curved&quot;:0,&quot;rounded&quot;:0};" vertex="1" parent="P6vbPu3KbrZlHX-8Sn77-15">
          <mxGeometry x="48" y="1572" width="10" height="739" as="geometry" />
        </mxCell>
        <mxCell id="H4YtO1ylQRDqALDeDLQf-100" value="" style="html=1;points=[[0,0,0,0,5],[0,1,0,0,-5],[1,0,0,0,5],[1,1,0,0,-5]];perimeter=orthogonalPerimeter;outlineConnect=0;targetShapes=umlLifeline;portConstraint=eastwest;newEdgeStyle={&quot;curved&quot;:0,&quot;rounded&quot;:0};" vertex="1" parent="P6vbPu3KbrZlHX-8Sn77-15">
          <mxGeometry x="48" y="2985" width="10" height="299" as="geometry" />
        </mxCell>
        <mxCell id="P6vbPu3KbrZlHX-8Sn77-16" style="edgeStyle=orthogonalEdgeStyle;rounded=0;orthogonalLoop=1;jettySize=auto;html=1;curved=0;" edge="1" parent="1" target="P6vbPu3KbrZlHX-8Sn77-15">
          <mxGeometry relative="1" as="geometry">
            <mxPoint x="-327.9960606060604" y="2094.01" as="sourcePoint" />
            <mxPoint x="41" y="2094" as="targetPoint" />
            <Array as="points">
              <mxPoint x="43" y="2094" />
              <mxPoint x="43" y="2094" />
            </Array>
          </mxGeometry>
        </mxCell>
        <mxCell id="P6vbPu3KbrZlHX-8Sn77-17" value="Clicca il bottone &quot;cambia password&quot;" style="text;html=1;align=center;verticalAlign=middle;resizable=0;points=[];autosize=1;strokeColor=none;fillColor=none;" vertex="1" parent="1">
          <mxGeometry x="-327" y="2069" width="208" height="26" as="geometry" />
        </mxCell>
        <mxCell id="P6vbPu3KbrZlHX-8Sn77-19" style="edgeStyle=orthogonalEdgeStyle;rounded=0;orthogonalLoop=1;jettySize=auto;html=1;curved=0;" edge="1" parent="1" target="P6vbPu3KbrZlHX-8Sn77-12">
          <mxGeometry relative="1" as="geometry">
            <mxPoint x="183.00393939393962" y="2120.01" as="sourcePoint" />
            <mxPoint x="694" y="2120" as="targetPoint" />
            <Array as="points">
              <mxPoint x="715" y="2120" />
              <mxPoint x="715" y="2120" />
            </Array>
          </mxGeometry>
        </mxCell>
        <mxCell id="P6vbPu3KbrZlHX-8Sn77-20" value="actionPerformed(e)" style="text;html=1;align=center;verticalAlign=middle;resizable=0;points=[];autosize=1;strokeColor=none;fillColor=none;" vertex="1" parent="1">
          <mxGeometry x="183" y="2095" width="121" height="26" as="geometry" />
        </mxCell>
        <mxCell id="P6vbPu3KbrZlHX-8Sn77-21" value="" style="endArrow=classic;html=1;rounded=0;" edge="1" parent="1">
          <mxGeometry width="50" height="50" relative="1" as="geometry">
            <mxPoint x="868.87" y="2216" as="sourcePoint" />
            <mxPoint x="183.00043478260852" y="2216" as="targetPoint" />
          </mxGeometry>
        </mxCell>
        <mxCell id="P6vbPu3KbrZlHX-8Sn77-22" value="getOldPassword()&lt;div&gt;getNewPassword()&lt;/div&gt;&lt;div&gt;getRepeatNewPassword()&lt;/div&gt;" style="text;html=1;align=center;verticalAlign=middle;resizable=0;points=[];autosize=1;strokeColor=none;fillColor=none;" vertex="1" parent="1">
          <mxGeometry x="711" y="2162" width="158" height="55" as="geometry" />
        </mxCell>
        <mxCell id="P6vbPu3KbrZlHX-8Sn77-23" value="LaVaultFacade.getInstance()" style="text;html=1;align=center;verticalAlign=middle;resizable=0;points=[];autosize=1;strokeColor=none;fillColor=none;" vertex="1" parent="1">
          <mxGeometry x="869" y="2217" width="171" height="26" as="geometry" />
        </mxCell>
        <mxCell id="P6vbPu3KbrZlHX-8Sn77-24" style="edgeStyle=orthogonalEdgeStyle;rounded=0;orthogonalLoop=1;jettySize=auto;html=1;curved=0;" edge="1" parent="1" target="B-oGz2C5baCeHcSGAwt5-28">
          <mxGeometry relative="1" as="geometry">
            <mxPoint x="869.0039393939396" y="2243.01" as="sourcePoint" />
            <mxPoint x="1555" y="2243" as="targetPoint" />
            <Array as="points">
              <mxPoint x="1323" y="2243" />
              <mxPoint x="1323" y="2243" />
            </Array>
          </mxGeometry>
        </mxCell>
        <mxCell id="P6vbPu3KbrZlHX-8Sn77-25" style="edgeStyle=orthogonalEdgeStyle;rounded=0;orthogonalLoop=1;jettySize=auto;html=1;curved=0;" edge="1" parent="1" target="P6vbPu3KbrZlHX-8Sn77-1">
          <mxGeometry relative="1" as="geometry">
            <mxPoint x="1680.3939393939397" y="2270" as="sourcePoint" />
            <mxPoint x="1869.9999999999998" y="2270" as="targetPoint" />
            <Array as="points">
              <mxPoint x="2152" y="2271" />
            </Array>
          </mxGeometry>
        </mxCell>
        <mxCell id="P6vbPu3KbrZlHX-8Sn77-26" value="user" style="text;html=1;align=center;verticalAlign=middle;resizable=0;points=[];autosize=1;strokeColor=none;fillColor=none;" vertex="1" parent="1">
          <mxGeometry x="1641.5" y="2319" width="41" height="26" as="geometry" />
        </mxCell>
        <mxCell id="P6vbPu3KbrZlHX-8Sn77-28" value="Risultato: user" style="text;html=1;align=center;verticalAlign=middle;resizable=0;points=[];autosize=1;strokeColor=none;fillColor=none;" vertex="1" parent="1">
          <mxGeometry x="2528" y="2293" width="95" height="26" as="geometry" />
        </mxCell>
        <mxCell id="P6vbPu3KbrZlHX-8Sn77-29" value="alternativa" style="shape=umlFrame;whiteSpace=wrap;html=1;pointerEvents=0;width=70;height=30;fillColor=#fa6800;fontColor=#000000;strokeColor=#C73500;strokeWidth=2;" vertex="1" parent="1">
          <mxGeometry x="100" y="2364" width="2591" height="465" as="geometry" />
        </mxCell>
        <mxCell id="P6vbPu3KbrZlHX-8Sn77-30" value="[&quot;Campi vuoti&quot;]" style="text;html=1;align=center;verticalAlign=middle;resizable=0;points=[];autosize=1;strokeColor=none;fillColor=none;" vertex="1" parent="1">
          <mxGeometry x="183" y="2366" width="97" height="26" as="geometry" />
        </mxCell>
        <mxCell id="P6vbPu3KbrZlHX-8Sn77-31" value="" style="endArrow=classic;html=1;rounded=0;dashed=1;" edge="1" parent="1" source="P6vbPu3KbrZlHX-8Sn77-12">
          <mxGeometry width="50" height="50" relative="1" as="geometry">
            <mxPoint x="872.5" y="2420" as="sourcePoint" />
            <mxPoint x="182.99736842105295" y="2420" as="targetPoint" />
          </mxGeometry>
        </mxCell>
        <mxCell id="P6vbPu3KbrZlHX-8Sn77-32" value="JOptionPane.showMessageDialog(...,&quot;Tutti i campi sono obbligatori&quot;,&quot;Errore di cambio password&quot;,...)" style="text;html=1;align=center;verticalAlign=middle;resizable=0;points=[];autosize=1;strokeColor=none;fillColor=none;" vertex="1" parent="1">
          <mxGeometry x="317" y="2392" width="552" height="26" as="geometry" />
        </mxCell>
        <mxCell id="P6vbPu3KbrZlHX-8Sn77-33" value="" style="endArrow=none;dashed=1;html=1;dashPattern=1 3;strokeWidth=2;rounded=0;flowAnimation=1;exitX=0;exitY=0.098;exitDx=0;exitDy=0;exitPerimeter=0;" edge="1" parent="1">
          <mxGeometry width="50" height="50" relative="1" as="geometry">
            <mxPoint x="100" y="2439.0020000000004" as="sourcePoint" />
            <mxPoint x="2691" y="2440" as="targetPoint" />
          </mxGeometry>
        </mxCell>
        <mxCell id="P6vbPu3KbrZlHX-8Sn77-34" value="[&quot;Vecchia password diversa dalla attuale&quot;]" style="text;html=1;align=center;verticalAlign=middle;resizable=0;points=[];autosize=1;strokeColor=none;fillColor=none;" vertex="1" parent="1">
          <mxGeometry x="100" y="2440" width="240" height="26" as="geometry" />
        </mxCell>
        <mxCell id="P6vbPu3KbrZlHX-8Sn77-35" value="if(!oldPassword.equals(user.getPassword()))" style="html=1;align=left;spacingLeft=2;endArrow=block;rounded=0;edgeStyle=orthogonalEdgeStyle;curved=0;rounded=0;" edge="1" parent="1">
          <mxGeometry relative="1" as="geometry">
            <mxPoint x="869" y="2456" as="sourcePoint" />
            <Array as="points">
              <mxPoint x="899" y="2486" />
            </Array>
            <mxPoint x="875" y="2486" as="targetPoint" />
          </mxGeometry>
        </mxCell>
        <mxCell id="P6vbPu3KbrZlHX-8Sn77-36" value="" style="endArrow=classic;html=1;rounded=0;dashed=1;" edge="1" parent="1" source="P6vbPu3KbrZlHX-8Sn77-12">
          <mxGeometry width="50" height="50" relative="1" as="geometry">
            <mxPoint x="732" y="2527" as="sourcePoint" />
            <mxPoint x="183" y="2527" as="targetPoint" />
          </mxGeometry>
        </mxCell>
        <mxCell id="P6vbPu3KbrZlHX-8Sn77-37" value="JOptionPane.showMessageDialog(...,&quot;La vecchia password non è&lt;div&gt;uguale a quella+inserita&lt;span style=&quot;background-color: transparent; color: light-dark(rgb(0, 0, 0), rgb(255, 255, 255));&quot;&gt;&quot;,&quot;Errore di cambio password&quot;,...)&lt;/span&gt;&lt;/div&gt;" style="text;html=1;align=center;verticalAlign=middle;resizable=0;points=[];autosize=1;strokeColor=none;fillColor=none;" vertex="1" parent="1">
          <mxGeometry x="364" y="2486" width="368" height="41" as="geometry" />
        </mxCell>
        <mxCell id="P6vbPu3KbrZlHX-8Sn77-38" value="" style="endArrow=none;dashed=1;html=1;dashPattern=1 3;strokeWidth=2;rounded=0;flowAnimation=1;exitX=0;exitY=0.098;exitDx=0;exitDy=0;exitPerimeter=0;" edge="1" parent="1">
          <mxGeometry width="50" height="50" relative="1" as="geometry">
            <mxPoint x="100" y="2541.0020000000004" as="sourcePoint" />
            <mxPoint x="2691" y="2542" as="targetPoint" />
          </mxGeometry>
        </mxCell>
        <mxCell id="P6vbPu3KbrZlHX-8Sn77-39" value="[&quot;nuova password e vecchia coincidono&quot;]" style="text;html=1;align=center;verticalAlign=middle;resizable=0;points=[];autosize=1;strokeColor=none;fillColor=none;" vertex="1" parent="1">
          <mxGeometry x="103" y="2543" width="235" height="26" as="geometry" />
        </mxCell>
        <mxCell id="P6vbPu3KbrZlHX-8Sn77-42" value="getSessionFacade()" style="text;html=1;align=center;verticalAlign=middle;resizable=0;points=[];autosize=1;strokeColor=none;fillColor=none;" vertex="1" parent="1">
          <mxGeometry x="1490" y="2229" width="125" height="26" as="geometry" />
        </mxCell>
        <mxCell id="P6vbPu3KbrZlHX-8Sn77-43" style="edgeStyle=orthogonalEdgeStyle;rounded=0;orthogonalLoop=1;jettySize=auto;html=1;curved=0;" edge="1" parent="1" target="B-oGz2C5baCeHcSGAwt5-29">
          <mxGeometry relative="1" as="geometry">
            <mxPoint x="1492.0039393939396" y="2254" as="sourcePoint" />
            <mxPoint x="2442.61" y="2254" as="targetPoint" />
            <Array as="points">
              <mxPoint x="1633" y="2254" />
              <mxPoint x="1633" y="2254" />
            </Array>
          </mxGeometry>
        </mxCell>
        <mxCell id="P6vbPu3KbrZlHX-8Sn77-44" value="getLoggedUser()" style="text;html=1;align=center;verticalAlign=middle;resizable=0;points=[];autosize=1;strokeColor=none;fillColor=none;" vertex="1" parent="1">
          <mxGeometry x="1683" y="2243" width="108" height="26" as="geometry" />
        </mxCell>
        <mxCell id="P6vbPu3KbrZlHX-8Sn77-45" value="LaVaultFacade.getInstance()" style="text;html=1;align=center;verticalAlign=middle;resizable=0;points=[];autosize=1;strokeColor=none;fillColor=none;" vertex="1" parent="1">
          <mxGeometry x="870" y="2543" width="171" height="26" as="geometry" />
        </mxCell>
        <mxCell id="P6vbPu3KbrZlHX-8Sn77-46" style="edgeStyle=orthogonalEdgeStyle;rounded=0;orthogonalLoop=1;jettySize=auto;html=1;curved=0;" edge="1" parent="1">
          <mxGeometry relative="1" as="geometry">
            <mxPoint x="870.0039393939396" y="2569.01" as="sourcePoint" />
            <mxPoint x="1493" y="2569" as="targetPoint" />
            <Array as="points">
              <mxPoint x="1157" y="2570" />
            </Array>
          </mxGeometry>
        </mxCell>
        <mxCell id="P6vbPu3KbrZlHX-8Sn77-47" style="edgeStyle=orthogonalEdgeStyle;rounded=0;orthogonalLoop=1;jettySize=auto;html=1;curved=0;" edge="1" parent="1" target="P6vbPu3KbrZlHX-8Sn77-1">
          <mxGeometry relative="1" as="geometry">
            <mxPoint x="1818.0039393939396" y="2621" as="sourcePoint" />
            <mxPoint x="2768.61" y="2621" as="targetPoint" />
            <Array as="points">
              <mxPoint x="2459" y="2620" />
              <mxPoint x="2459" y="2620" />
            </Array>
          </mxGeometry>
        </mxCell>
        <mxCell id="P6vbPu3KbrZlHX-8Sn77-48" value="getUserFacade()" style="text;html=1;align=center;verticalAlign=middle;resizable=0;points=[];autosize=1;strokeColor=none;fillColor=none;" vertex="1" parent="1">
          <mxGeometry x="1492" y="2569" width="108" height="26" as="geometry" />
        </mxCell>
        <mxCell id="P6vbPu3KbrZlHX-8Sn77-49" style="edgeStyle=orthogonalEdgeStyle;rounded=0;orthogonalLoop=1;jettySize=auto;html=1;curved=0;" edge="1" parent="1" target="B-oGz2C5baCeHcSGAwt5-30">
          <mxGeometry relative="1" as="geometry">
            <mxPoint x="1494.0039393939396" y="2595" as="sourcePoint" />
            <mxPoint x="1684" y="2595" as="targetPoint" />
            <Array as="points">
              <mxPoint x="1494" y="2596" />
            </Array>
          </mxGeometry>
        </mxCell>
        <mxCell id="P6vbPu3KbrZlHX-8Sn77-50" value="updatePassword(user,newPassword)" style="text;html=1;align=center;verticalAlign=middle;resizable=0;points=[];autosize=1;strokeColor=none;fillColor=none;" vertex="1" parent="1">
          <mxGeometry x="1819" y="2595" width="216" height="26" as="geometry" />
        </mxCell>
        <mxCell id="P6vbPu3KbrZlHX-8Sn77-51" value="Conferma" style="text;html=1;align=center;verticalAlign=middle;resizable=0;points=[];autosize=1;strokeColor=none;fillColor=none;" vertex="1" parent="1">
          <mxGeometry x="2551" y="2637" width="71" height="26" as="geometry" />
        </mxCell>
        <mxCell id="P6vbPu3KbrZlHX-8Sn77-54" value="" style="endArrow=classic;html=1;rounded=0;dashed=1;" edge="1" parent="1" target="B-oGz2C5baCeHcSGAwt5-28">
          <mxGeometry width="50" height="50" relative="1" as="geometry">
            <mxPoint x="1822" y="2690" as="sourcePoint" />
            <mxPoint x="1008" y="2690" as="targetPoint" />
          </mxGeometry>
        </mxCell>
        <mxCell id="P6vbPu3KbrZlHX-8Sn77-55" value="true" style="text;html=1;align=center;verticalAlign=middle;resizable=0;points=[];autosize=1;strokeColor=none;fillColor=none;" vertex="1" parent="1">
          <mxGeometry x="1780" y="2663" width="39" height="26" as="geometry" />
        </mxCell>
        <mxCell id="P6vbPu3KbrZlHX-8Sn77-57" value="" style="endArrow=classic;html=1;rounded=0;dashed=1;" edge="1" parent="1" target="P6vbPu3KbrZlHX-8Sn77-12">
          <mxGeometry width="50" height="50" relative="1" as="geometry">
            <mxPoint x="1494.5" y="2716" as="sourcePoint" />
            <mxPoint x="1164.5" y="2716" as="targetPoint" />
          </mxGeometry>
        </mxCell>
        <mxCell id="P6vbPu3KbrZlHX-8Sn77-58" value="true" style="text;html=1;align=center;verticalAlign=middle;resizable=0;points=[];autosize=1;strokeColor=none;fillColor=none;" vertex="1" parent="1">
          <mxGeometry x="1452.5" y="2689" width="39" height="26" as="geometry" />
        </mxCell>
        <mxCell id="P6vbPu3KbrZlHX-8Sn77-59" value="" style="endArrow=classic;html=1;rounded=0;dashed=1;" edge="1" parent="1" source="P6vbPu3KbrZlHX-8Sn77-12">
          <mxGeometry width="50" height="50" relative="1" as="geometry">
            <mxPoint x="845" y="2743" as="sourcePoint" />
            <mxPoint x="182" y="2743" as="targetPoint" />
          </mxGeometry>
        </mxCell>
        <mxCell id="P6vbPu3KbrZlHX-8Sn77-60" value="JOptionPane.showMessageDialog(...,&quot;Password cambiata con successo&quot;,&quot;Conferma di cambio password&quot;,...)" style="text;html=1;align=center;verticalAlign=middle;resizable=0;points=[];autosize=1;strokeColor=none;fillColor=none;" vertex="1" parent="1">
          <mxGeometry x="271" y="2715" width="599" height="26" as="geometry" />
        </mxCell>
        <mxCell id="P6vbPu3KbrZlHX-8Sn77-61" value="" style="endArrow=none;dashed=1;html=1;dashPattern=1 3;strokeWidth=2;rounded=0;flowAnimation=1;exitX=0;exitY=0.098;exitDx=0;exitDy=0;exitPerimeter=0;" edge="1" parent="1">
          <mxGeometry width="50" height="50" relative="1" as="geometry">
            <mxPoint x="100" y="2760.0020000000004" as="sourcePoint" />
            <mxPoint x="2690" y="2761" as="targetPoint" />
          </mxGeometry>
        </mxCell>
        <mxCell id="P6vbPu3KbrZlHX-8Sn77-62" value="[&quot;Password ripetuta NON uguale a quella nuova&quot;]" style="text;html=1;align=center;verticalAlign=middle;resizable=0;points=[];autosize=1;strokeColor=none;fillColor=none;" vertex="1" parent="1">
          <mxGeometry x="97" y="2760" width="280" height="26" as="geometry" />
        </mxCell>
        <mxCell id="P6vbPu3KbrZlHX-8Sn77-65" value="" style="endArrow=classic;html=1;rounded=0;dashed=1;" edge="1" parent="1" source="P6vbPu3KbrZlHX-8Sn77-12">
          <mxGeometry width="50" height="50" relative="1" as="geometry">
            <mxPoint x="870" y="2815" as="sourcePoint" />
            <mxPoint x="183.99736842105295" y="2815" as="targetPoint" />
          </mxGeometry>
        </mxCell>
        <mxCell id="P6vbPu3KbrZlHX-8Sn77-66" value="JOptionPane.showMessageDialog(...,&quot;Nuova password e password ripetuta non coincidono&quot;,&quot;Errore di cambio password&quot;,...)" style="text;html=1;align=center;verticalAlign=middle;resizable=0;points=[];autosize=1;strokeColor=none;fillColor=none;" vertex="1" parent="1">
          <mxGeometry x="189" y="2786" width="681" height="26" as="geometry" />
        </mxCell>
        <mxCell id="P6vbPu3KbrZlHX-8Sn77-68" value="Delete Account" style="shape=umlFrame;whiteSpace=wrap;html=1;pointerEvents=0;fillColor=#0050ef;fontColor=#ffffff;strokeColor=#001DBC;width=107;height=36;strokeWidth=2;" vertex="1" parent="1">
          <mxGeometry x="-440" y="2860" width="3142" height="587" as="geometry" />
        </mxCell>
        <mxCell id="H4YtO1ylQRDqALDeDLQf-9" style="edgeStyle=orthogonalEdgeStyle;rounded=0;orthogonalLoop=1;jettySize=auto;html=1;curved=0;" edge="1" parent="1">
          <mxGeometry relative="1" as="geometry">
            <mxPoint x="-327.9960606060604" y="2905.01" as="sourcePoint" />
            <mxPoint x="183" y="2905" as="targetPoint" />
            <Array as="points">
              <mxPoint x="43" y="2905" />
              <mxPoint x="43" y="2905" />
            </Array>
          </mxGeometry>
        </mxCell>
        <mxCell id="H4YtO1ylQRDqALDeDLQf-10" value="Clicca il bottone &quot;elimina account&quot;" style="text;html=1;align=center;verticalAlign=middle;resizable=0;points=[];autosize=1;strokeColor=none;fillColor=none;" vertex="1" parent="1">
          <mxGeometry x="-322" y="2880" width="198" height="26" as="geometry" />
        </mxCell>
        <mxCell id="H4YtO1ylQRDqALDeDLQf-23" value="" style="endArrow=classic;html=1;rounded=0;dashed=1;" edge="1" parent="1" target="B-oGz2C5baCeHcSGAwt5-28">
          <mxGeometry width="50" height="50" relative="1" as="geometry">
            <mxPoint x="1684.5" y="3053" as="sourcePoint" />
            <mxPoint x="870" y="3053" as="targetPoint" />
          </mxGeometry>
        </mxCell>
        <mxCell id="H4YtO1ylQRDqALDeDLQf-24" value="" style="endArrow=classic;html=1;rounded=0;dashed=1;" edge="1" parent="1">
          <mxGeometry width="50" height="50" relative="1" as="geometry">
            <mxPoint x="2628.5" y="3027" as="sourcePoint" />
            <mxPoint x="1683.5" y="3027" as="targetPoint" />
          </mxGeometry>
        </mxCell>
        <mxCell id="H4YtO1ylQRDqALDeDLQf-25" style="edgeStyle=orthogonalEdgeStyle;rounded=0;orthogonalLoop=1;jettySize=auto;html=1;curved=0;" edge="1" parent="1">
          <mxGeometry relative="1" as="geometry">
            <mxPoint x="183.00393939393962" y="2924.01" as="sourcePoint" />
            <mxPoint x="869" y="2924" as="targetPoint" />
            <Array as="points">
              <mxPoint x="715" y="2924" />
              <mxPoint x="715" y="2924" />
            </Array>
          </mxGeometry>
        </mxCell>
        <mxCell id="H4YtO1ylQRDqALDeDLQf-26" value="actionPerformed(e)" style="text;html=1;align=center;verticalAlign=middle;resizable=0;points=[];autosize=1;strokeColor=none;fillColor=none;" vertex="1" parent="1">
          <mxGeometry x="183" y="2899" width="121" height="26" as="geometry" />
        </mxCell>
        <mxCell id="H4YtO1ylQRDqALDeDLQf-27" value="LaVaultFacade.getInstance()" style="text;html=1;align=center;verticalAlign=middle;resizable=0;points=[];autosize=1;strokeColor=none;fillColor=none;" vertex="1" parent="1">
          <mxGeometry x="870.5" y="2925" width="171" height="26" as="geometry" />
        </mxCell>
        <mxCell id="H4YtO1ylQRDqALDeDLQf-28" style="edgeStyle=orthogonalEdgeStyle;rounded=0;orthogonalLoop=1;jettySize=auto;html=1;curved=0;" edge="1" parent="1">
          <mxGeometry relative="1" as="geometry">
            <mxPoint x="870.5039393939396" y="2951.01" as="sourcePoint" />
            <mxPoint x="1493.5" y="2951" as="targetPoint" />
            <Array as="points">
              <mxPoint x="1324.5" y="2951" />
              <mxPoint x="1324.5" y="2951" />
            </Array>
          </mxGeometry>
        </mxCell>
        <mxCell id="H4YtO1ylQRDqALDeDLQf-29" style="edgeStyle=orthogonalEdgeStyle;rounded=0;orthogonalLoop=1;jettySize=auto;html=1;curved=0;" edge="1" parent="1">
          <mxGeometry relative="1" as="geometry">
            <mxPoint x="1681.8939393939397" y="2978" as="sourcePoint" />
            <mxPoint x="2632.5" y="2978" as="targetPoint" />
            <Array as="points">
              <mxPoint x="2153.5" y="2979" />
            </Array>
          </mxGeometry>
        </mxCell>
        <mxCell id="H4YtO1ylQRDqALDeDLQf-30" value="user" style="text;html=1;align=center;verticalAlign=middle;resizable=0;points=[];autosize=1;strokeColor=none;fillColor=none;" vertex="1" parent="1">
          <mxGeometry x="1643" y="3027" width="41" height="26" as="geometry" />
        </mxCell>
        <mxCell id="H4YtO1ylQRDqALDeDLQf-31" value="Risultato: user" style="text;html=1;align=center;verticalAlign=middle;resizable=0;points=[];autosize=1;strokeColor=none;fillColor=none;" vertex="1" parent="1">
          <mxGeometry x="2529.5" y="3001" width="95" height="26" as="geometry" />
        </mxCell>
        <mxCell id="H4YtO1ylQRDqALDeDLQf-32" value="getSessionFacade()" style="text;html=1;align=center;verticalAlign=middle;resizable=0;points=[];autosize=1;strokeColor=none;fillColor=none;" vertex="1" parent="1">
          <mxGeometry x="1491.5" y="2937" width="125" height="26" as="geometry" />
        </mxCell>
        <mxCell id="H4YtO1ylQRDqALDeDLQf-33" style="edgeStyle=orthogonalEdgeStyle;rounded=0;orthogonalLoop=1;jettySize=auto;html=1;curved=0;" edge="1" parent="1">
          <mxGeometry relative="1" as="geometry">
            <mxPoint x="1493.5039393939396" y="2962" as="sourcePoint" />
            <mxPoint x="1683.5" y="2962" as="targetPoint" />
            <Array as="points">
              <mxPoint x="1634.5" y="2962" />
              <mxPoint x="1634.5" y="2962" />
            </Array>
          </mxGeometry>
        </mxCell>
        <mxCell id="H4YtO1ylQRDqALDeDLQf-34" value="getLoggedUser()" style="text;html=1;align=center;verticalAlign=middle;resizable=0;points=[];autosize=1;strokeColor=none;fillColor=none;" vertex="1" parent="1">
          <mxGeometry x="1684.5" y="2951" width="108" height="26" as="geometry" />
        </mxCell>
        <mxCell id="H4YtO1ylQRDqALDeDLQf-35" value="" style="endArrow=classic;html=1;rounded=0;dashed=1;" edge="1" parent="1">
          <mxGeometry width="50" height="50" relative="1" as="geometry">
            <mxPoint x="2632" y="3185" as="sourcePoint" />
            <mxPoint x="1817" y="3185" as="targetPoint" />
          </mxGeometry>
        </mxCell>
        <mxCell id="H4YtO1ylQRDqALDeDLQf-36" value="LaVaultFacade.getInstance()" style="text;html=1;align=center;verticalAlign=middle;resizable=0;points=[];autosize=1;strokeColor=none;fillColor=none;" vertex="1" parent="1">
          <mxGeometry x="868" y="3064" width="171" height="26" as="geometry" />
        </mxCell>
        <mxCell id="H4YtO1ylQRDqALDeDLQf-37" style="edgeStyle=orthogonalEdgeStyle;rounded=0;orthogonalLoop=1;jettySize=auto;html=1;curved=0;" edge="1" parent="1">
          <mxGeometry relative="1" as="geometry">
            <mxPoint x="868.0039393939396" y="3090.01" as="sourcePoint" />
            <mxPoint x="1491" y="3090" as="targetPoint" />
            <Array as="points">
              <mxPoint x="1155" y="3091" />
            </Array>
          </mxGeometry>
        </mxCell>
        <mxCell id="H4YtO1ylQRDqALDeDLQf-38" style="edgeStyle=orthogonalEdgeStyle;rounded=0;orthogonalLoop=1;jettySize=auto;html=1;curved=0;" edge="1" parent="1">
          <mxGeometry relative="1" as="geometry">
            <mxPoint x="1816.0039393939396" y="3142" as="sourcePoint" />
            <mxPoint x="2629" y="3141" as="targetPoint" />
            <Array as="points">
              <mxPoint x="2457" y="3141" />
              <mxPoint x="2457" y="3141" />
            </Array>
          </mxGeometry>
        </mxCell>
        <mxCell id="H4YtO1ylQRDqALDeDLQf-39" value="getUserFacade()" style="text;html=1;align=center;verticalAlign=middle;resizable=0;points=[];autosize=1;strokeColor=none;fillColor=none;" vertex="1" parent="1">
          <mxGeometry x="1490" y="3090" width="108" height="26" as="geometry" />
        </mxCell>
        <mxCell id="H4YtO1ylQRDqALDeDLQf-40" style="edgeStyle=orthogonalEdgeStyle;rounded=0;orthogonalLoop=1;jettySize=auto;html=1;curved=0;" edge="1" parent="1">
          <mxGeometry relative="1" as="geometry">
            <mxPoint x="1492.0039393939396" y="3116" as="sourcePoint" />
            <mxPoint x="1818" y="3117" as="targetPoint" />
            <Array as="points">
              <mxPoint x="1492" y="3117" />
            </Array>
          </mxGeometry>
        </mxCell>
        <mxCell id="H4YtO1ylQRDqALDeDLQf-41" value="deleteAccount(user)" style="text;html=1;align=center;verticalAlign=middle;resizable=0;points=[];autosize=1;strokeColor=none;fillColor=none;" vertex="1" parent="1">
          <mxGeometry x="1819" y="3116" width="125" height="26" as="geometry" />
        </mxCell>
        <mxCell id="H4YtO1ylQRDqALDeDLQf-42" value="Conferma" style="text;html=1;align=center;verticalAlign=middle;resizable=0;points=[];autosize=1;strokeColor=none;fillColor=none;" vertex="1" parent="1">
          <mxGeometry x="2549" y="3158" width="71" height="26" as="geometry" />
        </mxCell>
        <mxCell id="H4YtO1ylQRDqALDeDLQf-43" value="" style="endArrow=classic;html=1;rounded=0;dashed=1;" edge="1" parent="1">
          <mxGeometry width="50" height="50" relative="1" as="geometry">
            <mxPoint x="1820" y="3211" as="sourcePoint" />
            <mxPoint x="1489" y="3211" as="targetPoint" />
          </mxGeometry>
        </mxCell>
        <mxCell id="H4YtO1ylQRDqALDeDLQf-44" value="true" style="text;html=1;align=center;verticalAlign=middle;resizable=0;points=[];autosize=1;strokeColor=none;fillColor=none;" vertex="1" parent="1">
          <mxGeometry x="1778" y="3184" width="39" height="26" as="geometry" />
        </mxCell>
        <mxCell id="H4YtO1ylQRDqALDeDLQf-45" value="" style="endArrow=classic;html=1;rounded=0;dashed=1;" edge="1" parent="1">
          <mxGeometry width="50" height="50" relative="1" as="geometry">
            <mxPoint x="1492.5" y="3237" as="sourcePoint" />
            <mxPoint x="866" y="3237" as="targetPoint" />
          </mxGeometry>
        </mxCell>
        <mxCell id="H4YtO1ylQRDqALDeDLQf-46" value="true" style="text;html=1;align=center;verticalAlign=middle;resizable=0;points=[];autosize=1;strokeColor=none;fillColor=none;" vertex="1" parent="1">
          <mxGeometry x="1450.5" y="3210" width="39" height="26" as="geometry" />
        </mxCell>
        <mxCell id="H4YtO1ylQRDqALDeDLQf-47" value="" style="endArrow=classic;html=1;rounded=0;dashed=1;" edge="1" parent="1">
          <mxGeometry width="50" height="50" relative="1" as="geometry">
            <mxPoint x="869" y="3277" as="sourcePoint" />
            <mxPoint x="182" y="3277" as="targetPoint" />
          </mxGeometry>
        </mxCell>
        <mxCell id="H4YtO1ylQRDqALDeDLQf-48" value="JOptionPane.showMessageDialog(...,&quot;Account eliminato con successo, a breve sarai&lt;div&gt;riportato alla schermata di login&quot;,&quot;Rimozione account&quot;,...)&lt;/div&gt;" style="text;html=1;align=center;verticalAlign=middle;resizable=0;points=[];autosize=1;strokeColor=none;fillColor=none;" vertex="1" parent="1">
          <mxGeometry x="402" y="3236" width="470" height="41" as="geometry" />
        </mxCell>
        <mxCell id="H4YtO1ylQRDqALDeDLQf-49" value="mostra la schermata di login" style="html=1;align=left;spacingLeft=2;endArrow=block;rounded=0;edgeStyle=orthogonalEdgeStyle;curved=0;rounded=0;" edge="1" parent="1">
          <mxGeometry relative="1" as="geometry">
            <mxPoint x="868.95" y="3395" as="sourcePoint" />
            <Array as="points">
              <mxPoint x="899.45" y="3395" />
              <mxPoint x="899.45" y="3425" />
            </Array>
            <mxPoint x="729.9976190476193" y="3425" as="targetPoint" />
          </mxGeometry>
        </mxCell>
        <mxCell id="H4YtO1ylQRDqALDeDLQf-50" value="" style="endArrow=classic;html=1;rounded=0;dashed=1;" edge="1" parent="1">
          <mxGeometry width="50" height="50" relative="1" as="geometry">
            <mxPoint x="869.75" y="3316" as="sourcePoint" />
            <mxPoint x="183" y="3316" as="targetPoint" />
          </mxGeometry>
        </mxCell>
        <mxCell id="H4YtO1ylQRDqALDeDLQf-51" value="nasconde la RegisterView" style="text;html=1;align=center;verticalAlign=middle;resizable=0;points=[];autosize=1;strokeColor=none;fillColor=none;" vertex="1" parent="1">
          <mxGeometry x="712.75" y="3289" width="157" height="26" as="geometry" />
        </mxCell>
        <mxCell id="H4YtO1ylQRDqALDeDLQf-52" value="" style="endArrow=classic;html=1;rounded=0;dashed=1;" edge="1" parent="1">
          <mxGeometry width="50" height="50" relative="1" as="geometry">
            <mxPoint x="869" y="3351" as="sourcePoint" />
            <mxPoint x="182.25" y="3351" as="targetPoint" />
          </mxGeometry>
        </mxCell>
        <mxCell id="H4YtO1ylQRDqALDeDLQf-53" value="accountPanel.clearFields()" style="text;html=1;align=center;verticalAlign=middle;resizable=0;points=[];autosize=1;strokeColor=none;fillColor=none;" vertex="1" parent="1">
          <mxGeometry x="711" y="3324" width="160" height="26" as="geometry" />
        </mxCell>
        <mxCell id="H4YtO1ylQRDqALDeDLQf-56" value=":GroupController" style="shape=umlLifeline;perimeter=lifelinePerimeter;whiteSpace=wrap;html=1;container=1;dropTarget=0;collapsible=0;recursiveResize=0;outlineConnect=0;portConstraint=eastwest;newEdgeStyle={&quot;curved&quot;:0,&quot;rounded&quot;:0};" vertex="1" parent="1">
          <mxGeometry x="960" y="517" width="100" height="3373" as="geometry" />
        </mxCell>
        <mxCell id="H4YtO1ylQRDqALDeDLQf-89" value="" style="html=1;points=[[0,0,0,0,5],[0,1,0,0,-5],[1,0,0,0,5],[1,1,0,0,-5]];perimeter=orthogonalPerimeter;outlineConnect=0;targetShapes=umlLifeline;portConstraint=eastwest;newEdgeStyle={&quot;curved&quot;:0,&quot;rounded&quot;:0};" vertex="1" parent="H4YtO1ylQRDqALDeDLQf-56">
          <mxGeometry x="45" y="2850" width="10" height="27" as="geometry" />
        </mxCell>
        <mxCell id="H4YtO1ylQRDqALDeDLQf-59" value="GroupController.out()" style="text;html=1;align=center;verticalAlign=middle;resizable=0;points=[];autosize=1;strokeColor=none;fillColor=none;" vertex="1" parent="1">
          <mxGeometry x="871" y="3354" width="131" height="26" as="geometry" />
        </mxCell>
        <mxCell id="H4YtO1ylQRDqALDeDLQf-60" style="edgeStyle=orthogonalEdgeStyle;rounded=0;orthogonalLoop=1;jettySize=auto;html=1;curved=0;" edge="1" parent="1" target="H4YtO1ylQRDqALDeDLQf-56">
          <mxGeometry relative="1" as="geometry">
            <mxPoint x="868.0039393939396" y="3379.01" as="sourcePoint" />
            <mxPoint x="1491" y="3379" as="targetPoint" />
            <Array as="points">
              <mxPoint x="914" y="3380" />
            </Array>
          </mxGeometry>
        </mxCell>
        <mxCell id="H4YtO1ylQRDqALDeDLQf-61" value="Logout" style="shape=umlFrame;whiteSpace=wrap;html=1;pointerEvents=0;fillColor=#0050ef;fontColor=#ffffff;strokeColor=#001DBC;width=107;height=36;strokeWidth=2;" vertex="1" parent="1">
          <mxGeometry x="-441" y="3470" width="3142" height="396" as="geometry" />
        </mxCell>
        <mxCell id="H4YtO1ylQRDqALDeDLQf-62" style="edgeStyle=orthogonalEdgeStyle;rounded=0;orthogonalLoop=1;jettySize=auto;html=1;curved=0;" edge="1" parent="1">
          <mxGeometry relative="1" as="geometry">
            <mxPoint x="-328.9960606060604" y="3506.01" as="sourcePoint" />
            <mxPoint x="182" y="3506" as="targetPoint" />
            <Array as="points">
              <mxPoint x="42" y="3506" />
              <mxPoint x="42" y="3506" />
            </Array>
          </mxGeometry>
        </mxCell>
        <mxCell id="H4YtO1ylQRDqALDeDLQf-63" value="Clicca il bottone &quot;logout&quot;" style="text;html=1;align=center;verticalAlign=middle;resizable=0;points=[];autosize=1;strokeColor=none;fillColor=none;" vertex="1" parent="1">
          <mxGeometry x="-297" y="3481" width="147" height="26" as="geometry" />
        </mxCell>
        <mxCell id="H4YtO1ylQRDqALDeDLQf-64" style="edgeStyle=orthogonalEdgeStyle;rounded=0;orthogonalLoop=1;jettySize=auto;html=1;curved=0;" edge="1" parent="1">
          <mxGeometry relative="1" as="geometry">
            <mxPoint x="183.00393939393962" y="3532.01" as="sourcePoint" />
            <mxPoint x="869" y="3532" as="targetPoint" />
            <Array as="points">
              <mxPoint x="715" y="3532" />
              <mxPoint x="715" y="3532" />
            </Array>
          </mxGeometry>
        </mxCell>
        <mxCell id="H4YtO1ylQRDqALDeDLQf-65" value="actionPerformed(e)" style="text;html=1;align=center;verticalAlign=middle;resizable=0;points=[];autosize=1;strokeColor=none;fillColor=none;" vertex="1" parent="1">
          <mxGeometry x="183" y="3507" width="121" height="26" as="geometry" />
        </mxCell>
        <mxCell id="H4YtO1ylQRDqALDeDLQf-66" value="" style="endArrow=classic;html=1;rounded=0;dashed=1;" edge="1" parent="1" target="B-oGz2C5baCeHcSGAwt5-28">
          <mxGeometry width="50" height="50" relative="1" as="geometry">
            <mxPoint x="1683" y="3644" as="sourcePoint" />
            <mxPoint x="868.5" y="3644" as="targetPoint" />
          </mxGeometry>
        </mxCell>
        <mxCell id="H4YtO1ylQRDqALDeDLQf-68" value="LaVaultFacade.getInstance()" style="text;html=1;align=center;verticalAlign=middle;resizable=0;points=[];autosize=1;strokeColor=none;fillColor=none;" vertex="1" parent="1">
          <mxGeometry x="869" y="3533" width="171" height="26" as="geometry" />
        </mxCell>
        <mxCell id="H4YtO1ylQRDqALDeDLQf-69" style="edgeStyle=orthogonalEdgeStyle;rounded=0;orthogonalLoop=1;jettySize=auto;html=1;curved=0;" edge="1" parent="1">
          <mxGeometry relative="1" as="geometry">
            <mxPoint x="868.5039393939396" y="3559.01" as="sourcePoint" />
            <mxPoint x="1491.5" y="3559" as="targetPoint" />
            <Array as="points">
              <mxPoint x="1322.5" y="3559" />
              <mxPoint x="1322.5" y="3559" />
            </Array>
          </mxGeometry>
        </mxCell>
        <mxCell id="H4YtO1ylQRDqALDeDLQf-71" value="fine logout" style="text;html=1;align=center;verticalAlign=middle;resizable=0;points=[];autosize=1;strokeColor=none;fillColor=none;" vertex="1" parent="1">
          <mxGeometry x="1611" y="3617" width="73" height="26" as="geometry" />
        </mxCell>
        <mxCell id="H4YtO1ylQRDqALDeDLQf-73" value="getSessionFacade().logout()" style="text;html=1;align=center;verticalAlign=middle;resizable=0;points=[];autosize=1;strokeColor=none;fillColor=none;" vertex="1" parent="1">
          <mxGeometry x="1492" y="3543" width="169" height="26" as="geometry" />
        </mxCell>
        <mxCell id="H4YtO1ylQRDqALDeDLQf-74" style="edgeStyle=orthogonalEdgeStyle;rounded=0;orthogonalLoop=1;jettySize=auto;html=1;curved=0;" edge="1" parent="1">
          <mxGeometry relative="1" as="geometry">
            <mxPoint x="1491.5039393939396" y="3570" as="sourcePoint" />
            <mxPoint x="1681.5" y="3570" as="targetPoint" />
            <Array as="points">
              <mxPoint x="1632.5" y="3570" />
              <mxPoint x="1632.5" y="3570" />
            </Array>
          </mxGeometry>
        </mxCell>
        <mxCell id="H4YtO1ylQRDqALDeDLQf-76" value="isLogged=false" style="html=1;align=left;spacingLeft=2;endArrow=block;rounded=0;edgeStyle=orthogonalEdgeStyle;curved=0;rounded=0;" edge="1" parent="1">
          <mxGeometry relative="1" as="geometry">
            <mxPoint x="1682.5" y="3584" as="sourcePoint" />
            <Array as="points">
              <mxPoint x="1712.5" y="3614" />
            </Array>
            <mxPoint x="1688.5" y="3614" as="targetPoint" />
          </mxGeometry>
        </mxCell>
        <mxCell id="H4YtO1ylQRDqALDeDLQf-77" value="" style="endArrow=classic;html=1;rounded=0;dashed=1;" edge="1" parent="1" target="P6vbPu3KbrZlHX-8Sn77-12">
          <mxGeometry width="50" height="50" relative="1" as="geometry">
            <mxPoint x="1491" y="3656" as="sourcePoint" />
            <mxPoint x="1300" y="3656" as="targetPoint" />
          </mxGeometry>
        </mxCell>
        <mxCell id="H4YtO1ylQRDqALDeDLQf-78" value="" style="endArrow=classic;html=1;rounded=0;dashed=1;" edge="1" parent="1">
          <mxGeometry width="50" height="50" relative="1" as="geometry">
            <mxPoint x="868" y="3698" as="sourcePoint" />
            <mxPoint x="181" y="3698" as="targetPoint" />
          </mxGeometry>
        </mxCell>
        <mxCell id="H4YtO1ylQRDqALDeDLQf-79" value="JOptionPane.showMessageDialog(...,&quot;Logout effettuato con successo, a breve sarai&lt;div&gt;riportato alla schermata di login&quot;,&quot;Logout&quot;,...)&lt;/div&gt;" style="text;html=1;align=center;verticalAlign=middle;resizable=0;points=[];autosize=1;strokeColor=none;fillColor=none;" vertex="1" parent="1">
          <mxGeometry x="404" y="3657" width="465" height="41" as="geometry" />
        </mxCell>
        <mxCell id="H4YtO1ylQRDqALDeDLQf-80" value="" style="endArrow=classic;html=1;rounded=0;dashed=1;" edge="1" parent="1">
          <mxGeometry width="50" height="50" relative="1" as="geometry">
            <mxPoint x="869.75" y="3737" as="sourcePoint" />
            <mxPoint x="182.75" y="3737" as="targetPoint" />
          </mxGeometry>
        </mxCell>
        <mxCell id="H4YtO1ylQRDqALDeDLQf-81" value="accountPanel.clearFields()" style="text;html=1;align=center;verticalAlign=middle;resizable=0;points=[];autosize=1;strokeColor=none;fillColor=none;" vertex="1" parent="1">
          <mxGeometry x="708" y="3711" width="160" height="26" as="geometry" />
        </mxCell>
        <mxCell id="H4YtO1ylQRDqALDeDLQf-82" value="mostra la schermata di login" style="html=1;align=left;spacingLeft=2;endArrow=block;rounded=0;edgeStyle=orthogonalEdgeStyle;curved=0;rounded=0;" edge="1" parent="1">
          <mxGeometry relative="1" as="geometry">
            <mxPoint x="868.95" y="3814" as="sourcePoint" />
            <Array as="points">
              <mxPoint x="899.45" y="3814" />
              <mxPoint x="899.45" y="3844" />
            </Array>
            <mxPoint x="729.9976190476193" y="3844" as="targetPoint" />
          </mxGeometry>
        </mxCell>
        <mxCell id="H4YtO1ylQRDqALDeDLQf-83" value="" style="endArrow=classic;html=1;rounded=0;dashed=1;" edge="1" parent="1">
          <mxGeometry width="50" height="50" relative="1" as="geometry">
            <mxPoint x="869.75" y="3777" as="sourcePoint" />
            <mxPoint x="183" y="3777" as="targetPoint" />
          </mxGeometry>
        </mxCell>
        <mxCell id="H4YtO1ylQRDqALDeDLQf-84" value="nasconde la schermata attuale (accountPanel)" style="text;html=1;align=center;verticalAlign=middle;resizable=0;points=[];autosize=1;strokeColor=none;fillColor=none;" vertex="1" parent="1">
          <mxGeometry x="604.75" y="3750.5" width="265" height="26" as="geometry" />
        </mxCell>
        <mxCell id="H4YtO1ylQRDqALDeDLQf-85" value="GroupController.out()" style="text;html=1;align=center;verticalAlign=middle;resizable=0;points=[];autosize=1;strokeColor=none;fillColor=none;" vertex="1" parent="1">
          <mxGeometry x="872" y="3776.5" width="131" height="26" as="geometry" />
        </mxCell>
        <mxCell id="H4YtO1ylQRDqALDeDLQf-87" value="" style="html=1;points=[[0,0,0,0,5],[0,1,0,0,-5],[1,0,0,0,5],[1,1,0,0,-5]];perimeter=orthogonalPerimeter;outlineConnect=0;targetShapes=umlLifeline;portConstraint=eastwest;newEdgeStyle={&quot;curved&quot;:0,&quot;rounded&quot;:0};" vertex="1" parent="1">
          <mxGeometry x="178" y="2893" width="10" height="472" as="geometry" />
        </mxCell>
        <mxCell id="H4YtO1ylQRDqALDeDLQf-88" value="" style="html=1;points=[[0,0,0,0,5],[0,1,0,0,-5],[1,0,0,0,5],[1,1,0,0,-5]];perimeter=orthogonalPerimeter;outlineConnect=0;targetShapes=umlLifeline;portConstraint=eastwest;newEdgeStyle={&quot;curved&quot;:0,&quot;rounded&quot;:0};" vertex="1" parent="1">
          <mxGeometry x="864" y="2910" width="10" height="495" as="geometry" />
        </mxCell>
        <mxCell id="H4YtO1ylQRDqALDeDLQf-91" value="" style="endArrow=classic;html=1;rounded=0;dashed=1;" edge="1" parent="1" target="P6vbPu3KbrZlHX-8Sn77-12">
          <mxGeometry width="50" height="50" relative="1" as="geometry">
            <mxPoint x="1492" y="3063.17" as="sourcePoint" />
            <mxPoint x="1299.5" y="3063.17" as="targetPoint" />
          </mxGeometry>
        </mxCell>
        <mxCell id="H4YtO1ylQRDqALDeDLQf-92" value="user" style="text;html=1;align=center;verticalAlign=middle;resizable=0;points=[];autosize=1;strokeColor=none;fillColor=none;" vertex="1" parent="1">
          <mxGeometry x="1450.5" y="3038" width="41" height="26" as="geometry" />
        </mxCell>
        <mxCell id="H4YtO1ylQRDqALDeDLQf-108" value=".getSessionFacade()" style="text;html=1;align=center;verticalAlign=middle;resizable=0;points=[];autosize=1;strokeColor=none;fillColor=none;" vertex="1" parent="1">
          <mxGeometry x="1493" y="704" width="129" height="26" as="geometry" />
        </mxCell>
        <mxCell id="H4YtO1ylQRDqALDeDLQf-109" value=".getSessionFacade()" style="text;html=1;align=center;verticalAlign=middle;resizable=0;points=[];autosize=1;strokeColor=none;fillColor=none;" vertex="1" parent="1">
          <mxGeometry x="1496" y="1422" width="129" height="26" as="geometry" />
        </mxCell>
        <mxCell id="H4YtO1ylQRDqALDeDLQf-110" value=".getUserFacade()" style="text;html=1;align=center;verticalAlign=middle;resizable=0;points=[];autosize=1;strokeColor=none;fillColor=none;" vertex="1" parent="1">
          <mxGeometry x="1498.5" y="1649" width="111" height="26" as="geometry" />
        </mxCell>
        <mxCell id="H4YtO1ylQRDqALDeDLQf-111" value="true" style="text;html=1;align=center;verticalAlign=middle;resizable=0;points=[];autosize=1;strokeColor=none;fillColor=none;" vertex="1" parent="1">
          <mxGeometry x="1776" y="1732" width="39" height="26" as="geometry" />
        </mxCell>
        <mxCell id="H4YtO1ylQRDqALDeDLQf-112" value="true" style="text;html=1;align=center;verticalAlign=middle;resizable=0;points=[];autosize=1;strokeColor=none;fillColor=none;" vertex="1" parent="1">
          <mxGeometry x="1445" y="1744" width="39" height="26" as="geometry" />
        </mxCell>
      </root>
    </mxGraphModel>
  </diagram>
</mxfile>
